<?xml version="1.0" standalone="no"?>
<!DOCTYPE svg PUBLIC "-//W3C//DTD SVG 20010904//EN"
 "http://www.w3.org/TR/2001/REC-SVG-20010904/DTD/svg10.dtd">
<svg version="1.0" xmlns="http://www.w3.org/2000/svg"
 width="789.000000pt" height="789.000000pt" viewBox="0 0 789.000000 789.000000"
 preserveAspectRatio="xMidYMid meet">
<metadata>
Created by potrace 1.14, written by Peter Selinger 2001-2017
</metadata>
<g transform="translate(0.000000,789.000000) scale(0.100000,-0.100000)"
fill="#000000" stroke="none">
<path d="M9 5718 c-1 -2 -2 -798 -3 -1770 l-1 -1767 35 2 c19 1 38 7 42 12 5
6 8 5 8 -4 0 -10 3 -11 13 -3 7 6 26 13 42 16 17 2 30 5 30 6 0 1 16 4 35 6
19 2 58 8 85 15 28 6 58 11 68 11 9 -1 15 3 13 7 -3 4 10 7 29 6 19 0 35 2 35
6 0 3 13 5 30 4 16 -1 27 2 25 6 -3 4 5 7 18 7 32 0 71 7 85 16 7 4 12 2 12
-6 0 -10 2 -10 9 1 5 8 19 12 35 9 19 -4 24 -2 17 6 -7 8 -3 11 13 11 12 -1
27 -4 33 -8 6 -4 18 2 28 13 13 14 22 17 31 9 7 -5 15 -6 17 -2 3 5 23 10 43
11 21 2 45 8 53 15 12 10 13 9 6 -3 -7 -12 -6 -13 6 -4 8 6 21 12 29 12 31 2
67 9 78 16 7 4 12 1 12 -6 0 -10 2 -10 9 1 5 8 16 11 26 8 9 -4 14 -3 10 3 -3
6 1 10 10 10 10 0 13 -5 9 -12 -4 -7 2 -5 13 5 12 10 34 18 50 17 38 -3 74 10
66 23 -4 6 -1 7 8 2 18 -12 49 -14 49 -4 0 5 13 7 29 5 20 -2 32 2 36 11 3 10
0 13 -9 10 -15 -6 -16 17 -1 30 4 5 5 2 0 -6 -6 -11 -4 -13 8 -8 9 3 16 3 16
-1 -3 -20 2 -32 11 -27 6 4 7 12 3 18 -4 7 0 6 10 -2 14 -11 20 -11 33 0 13
10 17 10 24 0 4 -8 9 -9 11 -3 2 6 18 12 34 15 17 2 37 6 45 10 8 3 22 6 30 6
34 1 56 7 80 20 24 14 24 13 10 -5 -14 -19 -14 -19 7 -1 16 14 22 15 26 5 4
-10 6 -10 6 1 1 11 4 11 18 0 15 -13 15 -12 3 10 -10 20 -10 26 2 35 8 6 17
18 21 26 4 12 6 12 6 -2 1 -9 -7 -21 -16 -27 -19 -10 -12 -23 13 -27 8 -1 14
3 13 9 -3 25 1 38 11 32 6 -3 13 1 16 9 3 9 11 16 16 16 6 0 4 -7 -3 -17 -12
-14 -12 -16 1 -11 21 7 19 43 -2 42 -10 -1 -14 4 -11 12 4 10 0 12 -11 8 -9
-3 -13 -10 -10 -15 3 -5 0 -9 -5 -9 -6 0 -11 5 -11 11 0 5 -5 7 -10 4 -6 -4
-9 -3 -8 2 1 4 -4 19 -11 32 -7 13 -8 21 -2 17 7 -5 8 -1 4 9 -4 12 -8 13 -13
4 -5 -6 -17 -9 -28 -7 -14 4 -19 2 -16 -7 3 -7 1 -16 -5 -19 -6 -4 -8 -13 -4
-21 3 -8 0 -15 -7 -15 -6 0 -9 4 -6 8 5 8 -29 52 -40 52 -3 0 -4 -8 -2 -17 2
-10 -2 -17 -8 -16 -5 1 -15 -7 -22 -17 -10 -16 -8 -18 8 -17 11 1 22 7 24 14
3 7 10 13 16 13 5 0 3 -8 -6 -19 -20 -23 -56 -22 -60 2 -1 9 1 15 6 12 4 -3
11 2 14 11 3 9 11 12 18 8 7 -4 9 -3 5 2 -11 11 -78 5 -96 -9 -12 -10 -13 -9
-8 7 6 16 5 17 -7 7 -13 -11 -56 -19 -138 -25 -15 -1 -31 -5 -34 -9 -12 -12
-44 -8 -45 6 -1 6 -5 1 -9 -13 -6 -18 -8 -20 -9 -7 -1 12 -5 15 -13 10 -7 -4
-20 -8 -28 -8 -8 0 -21 -4 -27 -8 -8 -5 -13 -3 -13 5 0 9 -3 9 -8 2 -4 -6 -19
-11 -34 -11 -56 -2 -59 -3 -52 -15 5 -9 2 -9 -9 1 -13 10 -17 10 -17 1 0 -10
-4 -10 -16 1 -11 9 -18 9 -22 2 -4 -6 -33 -11 -64 -11 -32 0 -64 -4 -71 -11
-10 -8 -17 -7 -27 2 -10 9 -11 9 -6 0 5 -10 -5 -13 -36 -14 -73 -3 -93 -4
-103 -10 -5 -4 -22 -6 -37 -5 -16 1 -28 -3 -28 -9 0 -5 -5 -3 -10 5 -5 8 -10
10 -10 4 0 -6 -17 -12 -37 -13 -45 -2 -64 -5 -78 -12 -5 -2 -31 -5 -57 -4 -27
0 -48 -2 -48 -5 0 -6 -12 -8 -92 -12 -25 -1 -45 -6 -42 -10 2 -4 -4 -6 -15 -5
-11 1 -21 10 -23 22 -3 17 -2 2892 1 2921 1 13 39 12 60 0 10 -7 12 -5 6 3 -6
10 -3 11 14 1 12 -6 29 -10 39 -8 9 1 23 -1 30 -5 7 -5 12 -3 12 4 0 8 4 8 15
-1 8 -7 15 -9 15 -4 0 5 5 2 10 -6 7 -11 10 -11 10 -2 0 8 5 10 12 6 7 -5 29
-9 48 -10 19 -1 35 -3 35 -4 0 -1 14 -3 30 -4 17 -1 37 -6 44 -11 10 -5 12 -4
7 3 -4 7 -3 12 3 12 5 0 12 -4 15 -8 3 -5 22 -9 42 -10 20 -1 43 -7 52 -14 10
-8 13 -8 9 -2 -4 7 0 14 8 18 8 3 14 2 14 -2 -3 -18 3 -22 20 -12 12 6 22 6
26 1 3 -6 14 -8 25 -6 11 2 20 0 20 -5 0 -5 11 -7 25 -4 15 2 31 1 38 -3 17
-10 67 -11 67 -1 0 5 6 3 14 -4 7 -8 31 -13 55 -12 22 0 41 -2 41 -6 0 -4 16
-7 35 -5 19 1 35 -1 35 -4 0 -4 18 -6 41 -6 22 0 43 -3 45 -7 3 -5 10 -8 15
-8 6 0 8 4 5 8 -3 5 1 9 9 9 8 0 12 -3 10 -7 -2 -4 8 -8 23 -8 26 -2 67 -9 67
-12 0 -8 62 -4 67 4 5 7 8 7 8 -1 0 -8 14 -13 34 -13 19 0 37 6 40 13 3 6 3 1
-1 -13 -5 -22 -4 -23 11 -11 13 11 16 11 17 0 0 -8 4 -5 9 6 7 16 9 17 9 3 1
-9 6 -20 13 -24 6 -4 8 -3 5 2 -3 6 -2 16 4 24 7 13 9 13 9 -1 0 -15 30 -21
93 -20 9 0 17 -4 17 -8 0 -5 20 -7 45 -6 24 1 42 -2 39 -6 -2 -4 5 -6 17 -4
12 3 27 1 33 -3 34 -21 61 12 29 37 -17 13 -17 13 0 8 11 -4 20 -1 24 9 5 12
8 11 20 -6 8 -11 19 -18 24 -15 5 4 9 1 9 -4 0 -16 -16 -13 -34 4 -8 9 -17 11
-21 6 -3 -5 4 -16 15 -24 11 -7 17 -17 13 -20 -3 -4 5 -7 20 -7 14 0 29 -5 32
-10 9 -15 40 5 42 28 1 12 -4 19 -14 18 -9 0 -17 5 -19 12 -1 7 0 8 3 2 2 -5
9 -10 14 -10 6 0 7 5 4 10 -3 6 -1 10 4 10 6 0 11 4 11 8 0 14 -41 7 -51 -9
-5 -8 -9 -9 -9 -3 0 6 7 17 15 24 20 16 0 43 -25 35 -10 -3 -24 0 -31 8 -8 7
-23 16 -33 20 -10 4 -17 10 -14 13 7 7 58 -17 58 -28 0 -4 5 -8 11 -8 6 0 9 6
6 13 -6 17 26 16 47 -2 8 -7 19 -10 24 -7 6 3 9 -13 7 -39 -2 -36 0 -43 11
-35 7 6 12 23 11 38 -1 15 3 28 8 29 6 1 8 -6 6 -15 -3 -15 -1 -15 17 2 13 11
26 15 34 10 7 -5 23 -8 35 -9 12 0 24 -3 28 -7 4 -4 13 -4 21 -1 9 3 14 0 12
-8 -2 -9 4 -13 17 -11 11 2 28 4 38 5 21 2 22 13 2 21 -8 3 -15 0 -15 -6 0 -7
-4 -7 -13 1 -8 6 -17 8 -20 4 -4 -3 -7 -2 -7 3 0 5 -10 10 -22 10 -86 5 -116
9 -113 15 3 3 -6 6 -18 5 -12 -1 -25 3 -29 9 -5 6 -8 5 -8 -4 0 -11 -3 -11
-17 0 -9 8 -30 15 -47 16 -27 2 -61 8 -76 13 -3 1 -8 2 -11 2 -4 -1 -21 3 -38
8 -20 6 -33 5 -37 -2 -5 -7 -12 -4 -21 7 -12 18 -13 17 -11 -8 1 -14 8 -29 15
-31 16 -6 17 -26 2 -26 -5 0 -8 4 -5 9 3 5 -1 12 -10 15 -8 3 -13 9 -11 13 3
5 1 18 -4 30 -5 15 -14 20 -28 16 -11 -3 -29 -2 -38 2 -31 13 -46 14 -66 3
-12 -6 -17 -6 -13 0 3 5 0 15 -8 21 -11 9 -13 6 -10 -15 2 -23 -9 -26 -12 -3
-1 5 -2 13 -3 17 0 4 -11 8 -23 9 -49 1 -59 3 -53 13 3 6 -1 7 -9 4 -9 -3 -13
-10 -10 -15 3 -5 -2 -6 -10 -3 -9 3 -16 11 -16 18 0 6 -5 4 -10 -4 -7 -11 -10
-11 -10 -2 0 7 -4 10 -10 7 -5 -3 -10 0 -10 7 -1 9 -5 7 -14 -5 -12 -16 -14
-16 -20 -2 -4 11 -2 14 6 9 7 -5 8 -3 3 5 -5 9 -10 10 -18 2 -6 -6 -16 -7 -27
-1 -10 5 -34 8 -53 7 -20 -2 -34 0 -31 4 5 9 -25 21 -36 14 -5 -3 -11 -1 -14
4 -3 4 -19 7 -36 5 -19 -2 -29 0 -25 6 9 14 -9 12 -23 -2 -7 -7 -12 -8 -12 -2
0 11 -7 13 -55 16 -14 1 -25 6 -25 10 0 4 -3 7 -7 7 -31 -5 -73 3 -67 12 4 8
0 8 -15 0 -11 -7 -21 -8 -21 -3 0 7 -8 9 -65 13 -13 1 -23 4 -21 8 2 3 -8 7
-22 8 -60 3 -92 8 -92 15 0 4 -6 5 -14 2 -8 -3 -24 -1 -35 6 -16 8 -21 8 -21
-2 0 -9 -3 -9 -10 2 -5 8 -10 11 -10 6 0 -5 -8 -2 -17 5 -15 12 -16 12 -8 -1
7 -12 6 -13 -7 -3 -8 7 -18 10 -21 6 -4 -3 -7 0 -7 8 0 11 -2 11 -10 -1 -5 -8
-10 -10 -10 -3 0 6 -9 9 -20 6 -12 -3 -20 0 -20 7 0 7 -8 9 -19 5 -11 -3 -23
-1 -26 6 -6 8 -10 7 -16 -2 -7 -11 -9 -11 -9 -1 0 7 -4 10 -10 7 -5 -3 -16 -3
-22 2 -7 4 -24 9 -38 10 -14 1 -38 5 -55 8 -16 4 -38 6 -47 6 -10 0 -18 4 -18
8 0 4 -13 6 -30 5 -16 -1 -30 1 -30 5 0 4 -10 7 -22 7 -27 1 -96 12 -120 20
-10 3 -19 4 -19 2z m1001 -222 c0 -3 -4 -8 -10 -11 -5 -3 -10 -1 -10 4 0 6 5
11 10 11 6 0 10 -2 10 -4z m50 0 c0 -2 -8 -10 -17 -17 -16 -13 -17 -12 -4 4
13 16 21 21 21 13z m90 -20 c0 -3 -4 -8 -10 -11 -5 -3 -10 -1 -10 4 0 6 5 11
10 11 6 0 10 -2 10 -4z m35 -6 c3 -5 1 -10 -4 -10 -6 0 -11 5 -11 10 0 6 2 10
4 10 3 0 8 -4 11 -10z m-95 -34 c0 -3 -4 -8 -10 -11 -5 -3 -10 -1 -10 4 0 6 5
11 10 11 6 0 10 -2 10 -4z m55 -6 c3 -5 1 -10 -4 -10 -6 0 -11 5 -11 10 0 6 2
10 4 10 3 0 8 -4 11 -10z m45 6 c0 -3 -4 -8 -10 -11 -5 -3 -10 -1 -10 4 0 6 5
11 10 11 6 0 10 -2 10 -4z m302 -30 c-5 -6 -8 -19 -6 -29 1 -11 0 -16 -4 -12
-3 3 -7 19 -7 34 -1 20 3 27 12 24 9 -3 10 -10 5 -17z m133 -5 c3 -5 2 -12 -3
-15 -5 -3 -9 1 -9 9 0 17 3 19 12 6z m-78 -25 c0 -9 -6 -12 -16 -8 -13 5 -14
3 -4 -9 10 -12 8 -15 -10 -16 -12 0 -16 1 -9 4 10 4 10 8 0 21 -7 9 -8 13 -3
10 6 -4 17 -3 25 3 8 5 15 9 16 9 0 0 1 -6 1 -14z m117 -1 c3 -8 1 -15 -4 -15
-6 0 -10 7 -10 15 0 8 2 15 4 15 2 0 6 -7 10 -15z m31 -3 c-3 -3 -11 0 -18 7
-9 10 -8 11 6 5 10 -3 15 -9 12 -12z m-589 -18 c1 -9 0 -13 -4 -10 -3 4 -7 14
-8 22 -1 9 0 13 4 10 3 -4 7 -14 8 -22z m529 16 c-3 -5 -12 -10 -18 -10 -7 0
-6 4 3 10 19 12 23 12 15 0z m-304 -17 c13 -16 12 -17 -3 -4 -17 13 -22 21
-14 21 2 0 10 -8 17 -17z m471 -5 c-9 -9 -15 -9 -24 1 -11 11 -10 13 5 8 10
-4 17 -2 17 5 0 6 3 8 7 5 4 -4 1 -13 -5 -19z m-232 -2 c0 -2 -8 -10 -17 -17
-16 -13 -17 -12 -4 4 13 16 21 21 21 13z m43 -3 c-7 -2 -19 -2 -25 0 -7 3 -2
5 12 5 14 0 19 -2 13 -5z m31 -8 c-10 -8 -23 -15 -28 -15 -6 0 -1 7 10 15 10
8 23 15 28 15 6 0 1 -7 -10 -15z m-403 -18 c-10 -9 -11 -8 -5 6 3 10 9 15 12
12 3 -3 0 -11 -7 -18z m43 7 c3 -8 2 -12 -4 -9 -6 3 -10 10 -10 16 0 14 7 11
14 -7z m36 10 c0 -8 -19 -13 -24 -6 -3 5 1 9 9 9 8 0 15 -2 15 -3z m387 0 c-2
-3 -17 -7 -33 -10 -17 -2 -24 -1 -17 4 13 8 58 14 50 6z m121 -6 c-3 -7 -15
-15 -29 -18 -16 -4 -20 -8 -11 -14 6 -4 17 -4 24 0 7 4 8 3 4 -4 -4 -7 -2 -12
3 -12 6 0 11 -5 11 -11 0 -6 -13 -1 -28 10 -21 14 -32 17 -40 9 -12 -12 -35
-1 -27 13 4 5 -3 9 -14 9 -12 0 -20 -6 -18 -12 1 -7 -9 -14 -23 -15 -24 -2
-24 -2 -2 5 13 4 23 12 23 17 -1 6 9 10 22 10 12 0 21 -5 20 -12 -4 -18 12
-16 27 2 7 8 21 15 32 15 10 0 16 5 13 10 -3 6 -1 10 5 10 7 0 10 -6 8 -12z
m71 -29 c18 -17 25 -19 32 -8 4 7 10 11 13 9 2 -3 -1 -13 -8 -22 -12 -16 -17
-14 -56 23 -24 23 -35 37 -24 31 10 -6 30 -20 43 -33z m-479 16 c0 -1 -10 -10
-22 -21 -14 -12 -18 -13 -10 -3 6 9 10 18 7 21 -3 2 2 5 10 5 8 0 15 -1 15 -2z
m72 -17 c-2 -10 -9 -21 -15 -25 -6 -3 -7 -1 -3 6 4 6 3 17 -3 24 -7 9 -5 13 8
13 12 0 17 -6 13 -18z m94 10 c5 -7 3 -8 -6 -3 -10 6 -12 4 -6 -10 5 -15 4
-16 -9 -5 -13 11 -13 15 -3 21 17 11 16 11 24 -3z m64 -8 c0 -5 -2 -10 -4 -10
-3 0 -8 5 -11 10 -3 6 -1 10 4 10 6 0 11 -4 11 -10z m200 0 c0 -5 -4 -10 -10
-10 -5 0 -10 5 -10 10 0 6 5 10 10 10 6 0 10 -4 10 -10z m17 -22 c-3 -8 -6 -5
-6 6 -1 11 2 17 5 13 3 -3 4 -12 1 -19z m343 12 c0 -5 -5 -10 -11 -10 -5 0 -7
5 -4 10 3 6 8 10 11 10 2 0 4 -4 4 -10z m-602 -14 c-7 -8 -15 -12 -17 -11 -5
6 10 25 20 25 5 0 4 -6 -3 -14z m42 -5 c0 -6 -4 -12 -8 -15 -5 -3 -9 1 -9 9 0
8 4 15 9 15 4 0 8 -4 8 -9z m80 -1 c0 -5 -4 -10 -10 -10 -5 0 -10 5 -10 10 0
6 5 10 10 10 6 0 10 -4 10 -10z m60 -16 c0 -8 5 -14 12 -14 6 0 9 -2 6 -5 -11
-12 -37 7 -31 23 5 14 3 15 -8 5 -7 -7 -17 -13 -23 -13 -5 0 -1 6 9 14 22 16
35 12 35 -10z m-80 -4 c8 -5 11 -10 5 -10 -5 0 -17 5 -25 10 -8 5 -10 10 -5
10 6 0 17 -5 25 -10z m131 -33 c-10 -9 -11 -8 -5 6 3 10 9 15 12 12 3 -3 0
-11 -7 -18z m136 -10 c-3 -11 -23 -7 -19 4 1 5 -2 9 -8 9 -5 0 -10 5 -10 10 0
6 8 5 20 -2 11 -7 19 -17 17 -21z m-297 -2577 c-20 -13 -33 -13 -25 0 3 6 14
10 23 10 15 0 15 -2 2 -10z m-165 -29 c-6 -5 -25 10 -25 20 0 5 6 4 14 -3 8
-7 12 -15 11 -17z m-55 15 c0 -2 -7 -7 -16 -10 -8 -3 -12 -2 -9 4 6 10 25 14
25 6z m240 -6 c0 -5 -4 -10 -10 -10 -5 0 -10 5 -10 10 0 6 5 10 10 10 6 0 10
-4 10 -10z m-368 -32 c-5 -20 -23 -25 -19 -5 1 6 -4 11 -11 9 -8 -1 -11 1 -8
6 2 4 13 8 24 8 13 0 18 -6 14 -18z m158 12 c0 -5 -4 -10 -10 -10 -5 0 -10 5
-10 10 0 6 5 10 10 10 6 0 10 -4 10 -10z m130 -21 c0 -12 4 -17 11 -14 6 4 8
14 4 24 -5 13 -4 14 6 4 10 -10 10 -16 2 -24 -6 -6 -9 -18 -6 -25 3 -8 -1 -14
-8 -14 -7 0 -9 3 -6 7 4 3 3 11 -2 17 -12 16 -21 57 -10 50 5 -3 9 -14 9 -25z
m59 10 c11 -18 11 -23 -1 -30 -21 -14 -35 -10 -16 5 16 12 16 14 0 29 -9 9
-12 17 -7 17 6 0 16 -10 24 -21z m-265 -5 c9 -24 2 -26 -12 -4 -7 11 -8 20 -3
20 5 0 12 -7 15 -16z m296 1 c0 -8 -2 -15 -4 -15 -2 0 -6 7 -10 15 -3 8 -1 15
4 15 6 0 10 -7 10 -15z m-426 -11 c3 -8 2 -12 -4 -9 -6 3 -10 10 -10 16 0 14
7 11 14 -7z m168 9 c-6 -2 -10 -9 -7 -13 3 -5 1 -11 -4 -14 -7 -5 -8 11 -2 32
1 1 7 2 14 1 9 0 9 -2 -1 -6z m74 -2 c-4 -5 -1 -11 6 -13 19 -7 16 -48 -4 -59
-12 -6 -18 -6 -18 1 0 5 6 10 13 10 7 0 13 9 13 20 0 11 -6 20 -13 20 -14 0
-17 12 -6 23 9 10 15 8 9 -2z m-36 -11 c0 -5 -5 -10 -11 -10 -5 0 -7 5 -4 10
3 6 8 10 11 10 2 0 4 -4 4 -10z m87 4 c-3 -3 -12 -4 -19 -1 -8 3 -5 6 6 6 11
1 17 -2 13 -5z m27 -20 c3 -8 2 -12 -4 -9 -6 3 -10 10 -10 16 0 14 7 11 14 -7z
m-414 2 c0 -2 -8 -10 -17 -17 -16 -13 -17 -12 -4 4 13 16 21 21 21 13z m177
-26 c-2 -11 -9 -26 -17 -33 -10 -10 -11 -9 -4 3 9 15 10 20 13 40 0 6 3 10 6
10 3 0 3 -9 2 -20z m58 2 c-3 -3 -11 0 -18 7 -9 10 -8 11 6 5 10 -3 15 -9 12
-12z m45 8 c0 -5 -4 -10 -10 -10 -5 0 -10 5 -10 10 0 6 5 10 10 10 6 0 10 -4
10 -10z m40 2 c0 -5 -7 -9 -15 -9 -8 0 -12 4 -9 9 3 4 9 8 15 8 5 0 9 -4 9 -8z
m70 -2 c0 -5 -4 -10 -10 -10 -5 0 -10 5 -10 10 0 6 5 10 10 10 6 0 10 -4 10
-10z m-333 -15 c0 -8 -10 -23 -21 -32 -21 -18 -21 -18 -2 5 11 12 16 22 12 22
-4 0 -4 5 -1 10 9 14 12 13 12 -5z m-321 -7 c3 -4 -1 -5 -10 -4 -8 1 -18 5
-22 8 -3 4 1 5 10 4 8 -1 18 -5 22 -8z m288 0 c-3 -4 -9 -8 -15 -8 -5 0 -9 4
-9 8 0 5 7 9 15 9 8 0 12 -4 9 -9z m396 2 c0 -5 -4 -10 -10 -10 -5 0 -10 5
-10 10 0 6 5 10 10 10 6 0 10 -4 10 -10z m-127 -15 c4 -8 3 -16 -1 -19 -4 -3
-9 4 -9 15 -2 23 3 25 10 4z m-84 -9 c9 -11 9 -16 0 -22 -8 -5 -9 -3 -4 6 6
10 4 12 -8 7 -11 -4 -14 -2 -10 9 6 17 8 17 22 0z m178 8 c-3 -3 -12 -4 -19
-1 -8 3 -5 6 6 6 11 1 17 -2 13 -5z m-127 -14 c-8 -5 -19 -10 -25 -10 -5 0 -3
5 5 10 8 5 20 10 25 10 6 0 3 -5 -5 -10z m-586 -12 c-3 -4 -11 -5 -19 -1 -21
7 -19 12 4 10 11 0 18 -5 15 -9z m206 -14 c0 -8 -19 -13 -24 -6 -3 5 1 9 9 9
8 0 15 -2 15 -3z m204 -3 c-8 -9 -44 -11 -44 -3 0 4 11 8 25 8 13 0 22 -2 19
-5z m-348 -23 c3 -4 -1 -5 -10 -4 -8 1 -18 5 -22 8 -3 4 1 5 10 4 8 -1 18 -5
22 -8z m64 2 c0 -5 -5 -10 -11 -10 -5 0 -7 5 -4 10 3 6 8 10 11 10 2 0 4 -4 4
-10z m190 6 c0 -2 -8 -10 -17 -17 -16 -13 -17 -12 -4 4 13 16 21 21 21 13z
m-190 -40 c0 -3 -4 -8 -10 -11 -5 -3 -10 -1 -10 4 0 6 5 11 10 11 6 0 10 -2
10 -4z m-340 -50 c0 -2 -8 -10 -17 -17 -16 -13 -17 -12 -4 4 13 16 21 21 21
13z"/>
<path d="M1950 5334 c0 -6 7 -17 15 -24 8 -7 12 -17 8 -22 -3 -6 0 -9 7 -6 8
2 16 11 18 19 3 8 1 11 -3 7 -4 -4 -16 3 -26 15 -10 12 -18 17 -19 11z"/>
<path d="M2060 5295 c-7 -8 -17 -12 -23 -8 -6 3 -7 1 -3 -5 5 -9 13 -9 27 -2
11 6 24 8 31 4 6 -4 9 -1 6 6 -6 20 -23 23 -38 5z"/>
<path d="M2110 5284 c0 -11 -5 -14 -16 -10 -16 6 -68 -16 -79 -34 -4 -6 -8
-21 -10 -33 -4 -17 0 -23 15 -23 25 0 25 5 3 22 -16 12 -16 13 -1 8 10 -3 15
0 15 10 -1 8 1 14 5 13 4 -1 14 7 22 18 8 11 18 17 22 12 4 -4 2 -7 -4 -7 -7
0 -12 -4 -12 -10 0 -14 23 -8 36 9 13 17 56 23 47 7 -3 -6 -2 -8 2 -3 5 4 17
0 27 -10 10 -9 18 -13 18 -9 0 4 9 2 19 -4 12 -6 22 -6 25 -1 6 8 -17 23 -39
25 -5 1 -21 8 -35 16 -37 21 -60 22 -60 4z"/>
<path d="M2265 5281 c-5 -18 -9 -20 -16 -10 -4 7 -11 10 -16 6 -9 -9 17 -28
29 -21 4 3 8 1 8 -5 0 -10 25 -9 36 2 4 4 14 1 22 -6 13 -10 15 -9 9 8 -5 14
0 10 17 -10 14 -16 25 -34 25 -40 0 -5 -3 -4 -6 3 -2 6 -9 9 -14 6 -6 -3 -2
-12 8 -21 10 -8 12 -11 4 -7 -10 5 -12 3 -6 -6 6 -9 4 -11 -5 -5 -8 5 -11 4
-7 -1 3 -6 -5 -10 -18 -10 -13 0 -22 3 -20 6 2 4 -2 7 -10 7 -8 0 -11 -5 -8
-10 3 -6 1 -7 -6 -3 -6 4 -9 12 -6 17 8 13 -9 11 -22 -2 -7 -7 -13 -7 -17 0
-4 5 -13 8 -21 4 -18 -6 -19 6 -4 27 9 12 10 11 5 -5 -6 -20 -6 -20 9 -1 10
13 15 15 15 6 0 -17 13 -5 16 15 2 16 -8 20 -20 8 -12 -12 -36 -12 -36 0 0 7
-5 5 -10 -3 -5 -8 -10 -19 -10 -25 0 -5 4 -4 9 4 7 10 9 7 8 -11 -1 -13 -7
-25 -14 -25 -6 0 -9 5 -7 12 3 6 -5 11 -17 12 -18 2 -19 0 -7 -15 12 -16 11
-16 -7 -1 -21 17 -55 22 -55 8 0 -4 5 -11 10 -14 6 -3 10 -1 10 5 0 6 5 8 10
5 6 -4 8 -10 6 -14 -3 -4 20 -6 49 -6 32 1 52 -2 48 -8 -3 -5 2 -5 13 1 23 11
47 5 38 -10 -5 -7 -2 -8 7 -2 18 11 72 12 80 2 9 -13 49 -18 46 -6 -1 6 4 13
12 16 9 3 11 0 6 -8 -11 -17 16 -32 33 -18 9 8 16 8 20 1 9 -13 42 -13 42 0 0
5 -8 6 -17 2 -13 -4 -15 -3 -7 5 12 12 47 3 39 -10 -3 -5 -1 -11 4 -14 5 -4
12 -2 16 4 7 12 26 14 23 3 -2 -5 2 -9 7 -10 6 -2 11 2 11 7 1 6 2 13 3 17 0
4 7 -2 15 -12 8 -11 27 -20 42 -21 16 -1 31 -3 34 -4 16 -8 38 -3 59 12 23 17
41 16 41 -2 0 -5 -6 -7 -14 -4 -18 7 -30 -12 -15 -22 8 -4 9 -3 5 4 -8 14 20
12 44 -3 13 -8 13 -7 1 8 -11 14 -11 20 -1 32 12 14 15 14 30 0 9 -8 23 -15
31 -15 8 0 3 6 -11 13 -16 8 -24 20 -22 33 2 14 1 16 -7 5 -7 -11 -11 -10 -20
6 -6 12 -18 23 -26 27 -9 3 -13 2 -10 -4 3 -6 1 -10 -6 -10 -9 0 -9 -4 1 -15
12 -15 6 -35 -11 -35 -6 0 -8 4 -4 9 3 5 0 21 -6 35 -9 19 -16 23 -24 16 -14
-12 -48 -2 -40 10 3 5 0 12 -6 16 -8 4 -9 3 -5 -4 4 -7 3 -12 -3 -12 -5 0 -12
6 -14 13 -4 10 -6 10 -6 0 -1 -7 -6 -13 -12 -13 -5 0 -7 5 -3 12 4 6 3 8 -3 5
-6 -4 -16 0 -23 8 -9 11 -16 12 -26 4 -16 -13 -37 -2 -27 14 4 7 0 6 -10 -2
-9 -7 -17 -10 -17 -6 0 4 -6 2 -13 -4 -8 -6 -17 -8 -20 -4 -4 3 1 12 11 20 15
13 15 13 -4 4 -12 -6 -25 -7 -29 -3 -5 4 -5 1 -1 -5 4 -7 2 -13 -3 -13 -6 0
-11 7 -11 15 0 10 -8 14 -22 11 -13 -2 -33 3 -45 11 -14 9 -23 11 -28 4 -9
-15 -28 -14 -19 2 4 6 4 9 -1 5 -4 -4 -15 -2 -23 5 -13 10 -14 9 -8 -2 6 -9 5
-12 -5 -9 -8 3 -13 11 -11 18 2 11 0 11 -11 1 -12 -9 -16 -9 -19 1 -3 8 -8 3
-13 -11z m38 -14 c-2 -4 -5 -7 -8 -7 -3 0 -9 0 -15 0 -5 0 -10 4 -10 9 0 5 8
8 18 7 9 -2 16 -6 15 -9z m139 -21 c10 1 15 -3 12 -11 -4 -9 2 -13 20 -11 15
2 29 -1 32 -6 3 -5 10 -5 17 1 20 16 23 16 40 2 13 -10 20 -11 30 -2 21 17 51
-22 54 -70 2 -40 -10 -46 -20 -9 -3 13 -1 18 6 14 9 -5 9 -4 0 6 -6 7 -9 18
-7 25 3 7 1 16 -5 20 -6 3 -11 2 -11 -3 0 -6 -11 -9 -24 -8 -13 0 -22 4 -20 7
1 3 -3 6 -11 6 -8 0 -12 -3 -10 -7 2 -4 -2 -7 -10 -7 -8 0 -12 5 -9 11 3 6 -1
3 -9 -6 -16 -20 -28 -14 -20 10 3 10 1 13 -4 7 -4 -5 -21 -11 -38 -12 -19 -2
-25 1 -17 6 11 7 10 9 -3 14 -11 5 -14 3 -9 -6 5 -8 2 -7 -9 2 -10 8 -20 11
-24 7 -3 -3 -1 -6 5 -6 7 0 11 -5 10 -11 -3 -10 16 -18 49 -21 7 -1 9 -6 6
-11 -4 -6 -1 -7 7 -2 8 5 11 4 6 -3 -5 -9 13 -10 34 -2 3 1 8 2 13 1 4 0 7 2
7 7 0 4 13 8 28 8 18 1 29 -4 29 -12 0 -9 -7 -12 -18 -9 -9 3 -20 1 -24 -5 -3
-6 -11 -8 -16 -4 -5 3 -16 0 -24 -6 -12 -10 -15 -10 -15 0 0 9 -7 7 -20 -5
-11 -10 -21 -15 -21 -12 -1 4 -2 10 -3 15 -3 14 -17 32 -27 32 -6 0 -8 -4 -5
-9 3 -5 0 -14 -8 -20 -10 -8 -16 -8 -25 2 -6 8 -8 17 -4 21 14 13 12 44 -2 56
-12 10 -13 16 -4 27 10 11 15 11 33 0 12 -8 29 -13 38 -11z m49 -63 c13 -16
12 -17 -3 -4 -17 13 -22 21 -14 21 2 0 10 -8 17 -17z m229 -23 c0 -5 -5 -12
-12 -16 -8 -5 -9 -2 -4 11 6 16 4 16 -10 4 -10 -8 -12 -15 -5 -17 16 -5 14
-19 -4 -26 -9 -3 -19 3 -26 16 -8 15 -8 18 0 14 6 -4 11 -3 11 3 0 5 -4 12
-10 16 -5 3 -7 12 -4 20 5 13 10 13 35 -1 16 -8 29 -19 29 -24z m-105 10 c-6
-29 -15 -41 -26 -34 -5 3 -15 1 -22 -5 -10 -7 -13 -5 -14 9 -1 14 4 19 17 17
10 -1 19 2 19 7 -1 7 19 25 28 26 1 0 0 -9 -2 -20z m136 -2 c0 -7 2 -20 4 -28
3 -18 -14 -34 -38 -37 -19 -1 -19 1 5 49 14 29 27 36 29 16z m59 -3 c0 -8 5
-15 11 -15 8 0 8 -5 -1 -15 -7 -8 -17 -12 -22 -9 -6 4 -6 9 2 14 9 5 9 9 1 14
-14 9 -14 26 -1 26 6 0 10 -7 10 -15z"/>
<path d="M2375 5250 c-7 -11 -8 -11 23 -14 27 -3 28 0 3 14 -13 7 -22 7 -26 0z"/>
<path d="M2392 5195 c4 -4 3 -14 -3 -21 -7 -8 -7 -14 1 -19 5 -3 10 -5 11 -3
6 27 5 39 -4 45 -7 3 -9 3 -5 -2z"/>
<path d="M2449 5167 c6 -8 7 -18 3 -22 -4 -5 -1 -5 6 -1 10 6 10 11 1 22 -6 8
-14 14 -16 14 -3 0 0 -6 6 -13z"/>
<path d="M2666 5168 c3 -5 10 -6 15 -3 13 9 11 12 -6 12 -8 0 -12 -4 -9 -9z"/>
<path d="M2110 5249 c-12 -21 2 -60 14 -41 3 6 2 13 -3 17 -6 3 -8 12 -4 21 4
11 9 12 19 3 9 -7 14 -8 14 -1 0 20 -30 21 -40 1z"/>
<path d="M2164 5253 c7 -13 -5 -17 -32 -14 -10 2 -10 -2 0 -18 6 -11 16 -17
20 -15 5 3 6 9 4 13 -3 4 1 8 8 8 8 0 12 -7 9 -16 -3 -11 -1 -10 7 3 10 15 9
21 -5 35 -10 9 -15 10 -11 4z"/>
<path d="M2305 5240 c-3 -5 -3 -10 2 -10 4 -1 -5 -8 -22 -17 -16 -10 -34 -16
-38 -15 -5 1 -6 -2 -2 -8 5 -8 11 -7 21 1 11 9 17 9 29 -1 8 -7 15 -9 15 -5 0
4 6 2 14 -4 10 -9 16 -9 21 -1 4 6 4 14 1 17 -3 3 -1 12 5 20 6 7 9 14 5 14
-3 1 -9 2 -13 3 -5 1 -13 5 -20 9 -6 4 -14 3 -18 -3z m41 -12 c4 4 3 0 -4 -9
-6 -9 -10 -18 -7 -21 3 -2 -4 -4 -15 -3 -11 1 -23 5 -27 10 -5 4 -2 5 5 1 11
-7 17 6 13 28 -1 5 4 4 12 -2 8 -7 18 -8 23 -4z"/>
<path d="M2043 5222 c1 -23 12 -29 22 -12 3 6 12 10 18 10 7 0 6 -4 -3 -10
-13 -8 -12 -10 3 -10 9 0 17 3 17 8 -1 22 -40 42 -40 20 0 -9 -3 -8 -10 2 -7
12 -9 10 -7 -8z"/>
<path d="M2275 5230 c-3 -5 -1 -10 4 -10 6 0 11 5 11 10 0 6 -2 10 -4 10 -3 0
-8 -4 -11 -10z"/>
<path d="M1870 5210 c0 -5 5 -10 10 -10 6 0 10 5 10 10 0 6 -4 10 -10 10 -5 0
-10 -4 -10 -10z"/>
<path d="M2710 5210 c0 -5 5 -10 10 -10 6 0 10 5 10 10 0 6 -4 10 -10 10 -5 0
-10 -4 -10 -10z"/>
<path d="M2055 5191 c-2 -5 4 -11 15 -14 11 -3 20 -2 20 3 0 12 -28 21 -35 11z"/>
<path d="M2857 5179 c7 -7 15 -10 18 -7 3 3 -2 9 -12 12 -14 6 -15 5 -6 -5z"/>
<path d="M2890 5170 c0 -5 9 -14 20 -20 11 -6 18 -15 15 -19 -2 -5 2 -14 10
-21 10 -9 15 -9 15 -1 0 6 -5 11 -11 11 -5 0 -8 4 -5 8 3 5 -6 19 -19 30 -14
12 -25 18 -25 12z"/>
<path d="M2930 5170 c0 -5 5 -10 11 -10 5 0 7 5 4 10 -3 6 -8 10 -11 10 -2 0
-4 -4 -4 -10z"/>
<path d="M2864 5148 c3 -15 26 -23 26 -8 0 6 -4 9 -9 6 -5 -4 -12 -1 -14 4 -3
6 -4 5 -3 -2z"/>
<path d="M2955 5149 c-11 -16 -1 -19 13 -3 7 8 8 14 3 14 -5 0 -13 -5 -16 -11z"/>
<path d="M2988 5147 c-9 -7 -13 -18 -10 -24 5 -7 12 -2 19 13 6 13 10 24 10
24 -1 0 -10 -6 -19 -13z"/>
<path d="M3030 5140 c0 -6 7 -10 15 -10 8 0 15 2 15 4 0 2 -7 6 -15 10 -8 3
-15 1 -15 -4z"/>
<path d="M2901 5124 c0 -11 3 -14 6 -6 3 7 2 16 -1 19 -3 4 -6 -2 -5 -13z"/>
<path d="M3096 5125 c-3 -9 3 -19 14 -25 14 -8 20 -8 20 0 0 6 5 8 12 4 6 -4
8 -3 5 4 -4 5 -16 8 -27 5 -16 -4 -19 -2 -14 11 3 9 4 16 1 16 -3 0 -7 -7 -11
-15z"/>
<path d="M3070 5121 c0 -7 -5 -9 -12 -5 -7 5 -8 3 -3 -5 5 -9 10 -10 18 -2 6
6 8 14 4 18 -4 3 -7 1 -7 -6z"/>
<path d="M2830 5113 c0 -6 5 -15 10 -18 6 -4 7 -11 4 -17 -5 -7 -2 -8 7 -2 8
4 20 9 27 10 8 2 17 5 20 8 3 4 -5 5 -19 3 -14 -2 -29 3 -36 12 -7 10 -12 11
-13 4z"/>
<path d="M3017 5113 c-10 -10 -8 -33 3 -33 5 0 7 8 4 18 -5 14 -3 14 10 -2 9
-11 16 -15 16 -9 0 14 -25 34 -33 26z"/>
<path d="M2915 5090 c3 -5 11 -10 16 -10 6 0 7 5 4 10 -3 6 -11 10 -16 10 -6
0 -7 -4 -4 -10z"/>
<path d="M2967 5083 c5 -12 3 -14 -7 -8 -9 5 -11 4 -6 -4 4 -6 12 -9 17 -6 12
8 12 35 -1 35 -5 0 -6 -7 -3 -17z"/>
<path d="M3070 5082 c-12 -13 -26 -52 -15 -40 2 1 3 7 4 11 0 5 8 15 18 22 10
7 16 16 13 18 -3 3 -12 -2 -20 -11z"/>
<path d="M3239 5098 c-5 -18 -6 -38 -1 -34 7 8 12 36 6 36 -2 0 -4 -1 -5 -2z"/>
<path d="M3285 5089 c-3 -4 2 -6 10 -5 21 3 28 13 10 13 -9 0 -18 -4 -20 -8z"/>
<path d="M3150 5081 c0 -7 -5 -9 -12 -5 -7 5 -8 3 -3 -5 5 -9 10 -10 18 -2 6
6 8 14 4 18 -4 3 -7 1 -7 -6z"/>
<path d="M2890 5076 c0 -2 7 -7 16 -10 8 -3 12 -2 9 4 -6 10 -25 14 -25 6z"/>
<path d="M2990 5070 c0 -5 5 -10 11 -10 5 0 7 5 4 10 -3 6 -8 10 -11 10 -2 0
-4 -4 -4 -10z"/>
<path d="M3095 5071 c-3 -5 0 -13 6 -17 7 -4 9 -3 5 4 -3 5 0 13 6 15 9 4 10
6 1 6 -6 1 -14 -3 -18 -8z"/>
<path d="M3347 5069 c7 -9 10 -19 6 -22 -3 -4 -1 -7 5 -7 17 0 15 16 -5 31
-16 12 -17 12 -6 -2z"/>
<path d="M3116 5043 c-6 -14 -5 -15 5 -6 7 7 10 15 7 18 -3 3 -9 -2 -12 -12z"/>
<path d="M3559 5058 c-5 -18 -6 -38 -1 -34 7 8 12 36 6 36 -2 0 -4 -1 -5 -2z"/>
<path d="M3275 5030 c3 -5 8 -10 11 -10 2 0 4 5 4 10 0 6 -5 10 -11 10 -5 0
-7 -4 -4 -10z"/>
<path d="M3586 5032 c-2 -4 4 -8 14 -8 10 0 16 4 14 8 -3 4 -9 8 -14 8 -5 0
-11 -4 -14 -8z"/>
<path d="M3636 5032 c-3 -5 1 -9 9 -9 8 0 12 4 9 9 -3 4 -7 8 -9 8 -2 0 -6 -4
-9 -8z"/>
<path d="M3430 5012 c0 -5 7 -9 15 -9 8 0 12 4 9 9 -3 4 -9 8 -15 8 -5 0 -9
-4 -9 -8z"/>
<path d="M3680 5010 c-9 -6 -10 -10 -3 -10 6 0 15 5 18 10 8 12 4 12 -15 0z"/>
<path d="M3754 4984 c1 -8 4 -15 7 -16 2 -2 3 -1 2 1 -2 2 2 9 7 16 7 8 5 12
-4 12 -8 0 -13 -6 -12 -13z"/>
<path d="M3799 4998 c-6 -20 -6 -39 0 -42 4 -3 7 6 7 20 0 20 -4 32 -7 22z"/>
<path d="M3897 4980 c7 -8 20 -15 29 -16 9 -1 13 1 9 4 -4 4 -10 7 -13 7 -4 0
-14 4 -22 9 -12 7 -13 6 -3 -4z"/>
<path d="M3874 4966 c1 -8 5 -18 8 -22 4 -3 5 1 4 10 -1 8 -5 18 -8 22 -4 3
-5 -1 -4 -10z"/>
<path d="M3951 4977 c2 -1 13 -9 24 -17 19 -14 19 -14 6 3 -7 9 -18 17 -24 17
-6 0 -8 -1 -6 -3z"/>
<path d="M4086 4948 c3 -5 10 -6 15 -3 13 9 11 12 -6 12 -8 0 -12 -4 -9 -9z"/>
<path d="M4155 4930 c-3 -5 -1 -10 4 -10 6 0 11 5 11 10 0 6 -2 10 -4 10 -3 0
-8 -4 -11 -10z"/>
<path d="M4226 4908 c3 -5 10 -6 15 -3 13 9 11 12 -6 12 -8 0 -12 -4 -9 -9z"/>
<path d="M4266 4912 c-3 -5 1 -9 9 -9 8 0 12 4 9 9 -3 4 -7 8 -9 8 -2 0 -6 -4
-9 -8z"/>
<path d="M4395 4899 c-4 -6 -5 -12 -2 -15 2 -3 7 2 10 11 7 17 1 20 -8 4z"/>
<path d="M1614 4383 c5 -10 -8 -12 -54 -10 -58 3 -63 2 -72 -22 -6 -14 -12
-39 -14 -55 -1 -16 -6 -41 -10 -55 -4 -14 -9 -35 -10 -46 -2 -11 -7 -31 -11
-45 -3 -14 -5 -31 -4 -39 1 -8 -2 -10 -10 -5 -8 5 -10 3 -4 -6 4 -7 2 -16 -6
-21 -9 -5 -10 -9 -2 -9 10 0 5 -37 -15 -90 -5 -15 -8 -34 -10 -83 -1 -16 -5
-26 -9 -24 -5 3 -8 -17 -9 -43 0 -39 3 -50 18 -53 10 -3 18 -2 18 2 0 4 23 5
50 1 28 -4 50 -4 50 0 0 3 27 3 60 0 33 -3 60 -3 60 1 0 3 18 3 40 -1 22 -4
40 -4 40 0 0 4 18 4 40 0 22 -4 40 -4 40 0 0 4 18 4 40 0 22 -4 40 -4 40 -1 0
4 27 4 60 1 33 -3 60 -3 60 0 0 3 27 5 60 5 33 -1 60 3 60 8 0 5 7 6 16 3 8
-3 12 -2 9 4 -6 9 8 14 28 11 5 -1 6 3 3 8 -4 5 3 12 14 16 11 3 20 13 20 22
0 9 8 22 18 30 10 8 11 11 2 7 -12 -6 -13 -5 -4 7 7 8 27 82 45 166 18 83 36
150 39 148 4 -3 9 38 14 129 l1 29 -88 1 c-82 1 -119 -9 -100 -27 3 -4 2 -7
-3 -7 -5 0 -10 -18 -11 -41 -1 -22 -6 -46 -11 -52 -5 -7 -8 -20 -6 -30 2 -13
-2 -17 -13 -13 -12 5 -13 3 -5 -7 8 -10 10 -52 2 -52 -1 0 -3 -11 -6 -25 -2
-14 -7 -32 -11 -40 -3 -8 -5 -21 -4 -29 2 -8 -2 -10 -11 -5 -11 6 -11 5 0 -8
10 -13 10 -19 -3 -31 -8 -9 -14 -21 -13 -28 2 -6 -5 -13 -15 -14 -9 -2 -15 1
-11 6 3 5 0 9 -5 9 -6 0 -11 -6 -11 -12 0 -9 -4 -8 -10 2 -9 13 -10 13 -10 0
0 -13 -1 -13 -10 0 -5 8 -10 10 -10 4 0 -7 -13 -11 -30 -10 -18 0 -30 6 -30
14 0 8 5 10 13 5 22 -13 39 -13 28 1 -6 7 -7 17 -3 21 4 5 1 5 -5 1 -8 -4 -13
-2 -13 6 0 7 -6 4 -12 -7 -11 -19 -11 -19 -19 0 -6 17 -8 17 -8 3 -1 -18 -36
-17 -55 2 -18 18 -26 11 -8 -8 9 -10 29 -18 43 -17 14 1 26 -3 26 -9 0 -18
-50 -15 -65 3 -12 15 -13 14 -9 0 3 -9 -1 -16 -9 -16 -9 0 -13 6 -9 14 3 8 -2
21 -10 29 -8 9 -15 12 -15 7 0 -5 5 -14 12 -21 9 -9 9 -12 -1 -12 -7 0 -10 -3
-8 -8 3 -4 -17 -7 -44 -8 -48 -1 -61 7 -37 22 7 5 8 3 3 -6 -5 -9 -4 -11 3 -6
21 13 13 27 -13 22 -17 -3 -25 0 -25 10 0 8 -4 14 -8 14 -4 0 -8 -9 -8 -19 0
-13 6 -18 18 -16 12 3 15 -1 11 -12 -5 -12 -7 -12 -14 -1 -7 10 -9 10 -9 -2 0
-12 -2 -13 -9 -1 -7 11 -9 11 -13 0 -3 -9 -6 -8 -11 4 -3 9 -3 16 1 16 18 -3
26 2 14 9 -12 8 -5 56 24 175 9 37 13 57 19 101 4 25 10 44 14 42 3 -2 6 9 6
25 1 27 -10 35 -39 30 -4 -1 -15 4 -24 11 -12 10 -14 10 -8 1z"/>
<path d="M2936 4383 c-4 -5 -121 -8 -260 -9 -139 0 -258 -4 -264 -8 -7 -4 -12
-13 -12 -21 0 -7 -6 -16 -12 -18 -10 -4 -10 -6 -1 -6 12 -1 11 -8 -3 -48 -4
-10 -8 -30 -10 -45 -4 -31 -18 -29 164 -30 37 0 73 -6 81 -12 11 -8 13 -8 7 2
-4 7 -2 12 5 12 7 0 9 -11 5 -32 -13 -71 -16 -84 -23 -113 -4 -16 -6 -36 -4
-42 3 -18 -9 -16 -26 5 -12 15 -13 14 -2 -8 20 -38 20 -54 2 -67 -11 -8 -12
-13 -4 -13 7 0 9 -5 5 -11 -3 -6 -8 -27 -10 -46 -2 -19 -5 -42 -8 -51 -3 -9
-2 -22 2 -28 9 -14 42 -26 42 -15 0 4 23 5 50 1 28 -4 50 -3 50 1 0 4 8 5 19
2 20 -5 30 11 38 62 4 24 29 144 58 275 2 8 4 23 4 33 1 10 5 16 10 13 5 -3 8
2 7 12 -1 15 12 17 119 19 66 1 127 2 135 2 16 1 36 59 47 134 4 30 2 37 -12
37 -10 0 -13 5 -9 13 6 9 4 9 -7 1 -19 -15 -141 -15 -132 0 3 6 0 5 -8 -1 -16
-15 -43 -17 -34 -3 7 12 2 13 -9 3z"/>
<path d="M4807 4383 c-4 -3 -138 -6 -299 -7 -271 -1 -293 -2 -296 -19 -2 -9
-8 -15 -13 -12 -5 3 -6 -1 -3 -9 5 -12 -5 -72 -23 -146 -5 -20 -10 -51 -12
-73 0 -10 -5 -16 -9 -13 -4 2 -7 -8 -6 -22 2 -36 -6 -53 -20 -45 -6 4 -5 0 2
-9 10 -13 11 -22 2 -38 -6 -11 -8 -25 -5 -30 3 -6 -2 -10 -12 -10 -15 0 -16
-2 -3 -10 9 -6 11 -13 5 -17 -5 -5 -11 -21 -11 -38 -1 -16 -4 -48 -6 -70 l-5
-40 341 2 c188 1 343 2 346 3 3 2 8 2 13 1 4 0 7 3 7 9 0 5 7 7 15 4 8 -4 15
-1 15 4 0 6 10 14 22 18 54 17 109 108 129 214 7 36 17 68 23 72 10 7 -15 13
-37 9 -10 -2 0 17 24 44 10 11 26 53 36 93 11 40 21 70 24 68 3 -3 3 10 1 28
-3 25 -8 33 -20 31 -10 -1 -25 2 -36 7 -10 6 -16 6 -13 1 7 -10 -142 -11 -159
0 -6 3 -14 4 -17 0z m-387 -198 c0 6 5 3 10 -5 6 -10 10 -11 10 -2 0 8 16 12
45 12 36 0 45 -3 44 -17 0 -12 -2 -13 -6 -5 -4 10 -8 10 -21 0 -12 -10 -14
-10 -8 0 4 6 3 12 -1 12 -5 0 -15 -6 -22 -12 -11 -10 -13 -10 -7 0 7 12 -6 17
-17 6 -4 -4 -22 -8 -40 -10 -24 -2 -34 1 -34 11 0 8 4 12 8 9 4 -2 11 1 15 7
4 8 9 7 15 -2 5 -8 9 -9 9 -4z m171 -7 c3 -1 13 3 22 11 11 8 17 9 17 2 0 -13
42 -10 52 4 5 7 8 7 8 0 0 -6 22 -9 51 -8 45 2 63 -5 27 -11 -7 -1 -19 -6 -27
-10 -10 -6 -12 -5 -7 3 10 15 -25 11 -36 -4 -5 -6 -8 -5 -8 4 0 11 -3 11 -15
1 -12 -10 -15 -10 -15 0 0 10 -3 10 -15 0 -8 -7 -15 -8 -15 -3 0 10 -35 11
-45 1 -12 -11 -44 4 -38 18 5 13 11 11 44 -8z m-205 -47 c0 -11 -3 -18 -6 -16
-3 2 -7 -13 -8 -33 -2 -45 -5 -63 -15 -79 -4 -6 -4 -13 0 -15 5 -3 93 -4 196
-4 105 1 191 -3 194 -8 4 -5 1 -6 -5 -2 -7 4 -12 3 -12 -2 0 -10 -150 -9 -167
1 -8 5 -13 3 -13 -5 0 -9 -3 -9 -10 2 -9 13 -10 13 -10 0 0 -13 -1 -13 -10 0
-9 13 -10 13 -10 0 0 -13 -1 -13 -10 0 -5 8 -10 10 -10 4 0 -12 -108 -13 -127
-1 -8 5 -13 3 -13 -5 0 -10 -3 -9 -10 2 -5 9 -5 19 1 27 6 7 8 16 6 20 -3 5 1
34 8 65 7 31 10 59 7 62 -3 3 1 6 9 6 8 0 15 -9 15 -19z"/>
<path d="M5286 4382 c-2 -4 -38 -7 -80 -7 -70 1 -75 0 -81 -22 -3 -15 -10 -21
-18 -17 -9 5 -9 4 -1 -5 13 -14 6 -64 -7 -55 -5 3 -9 1 -9 -5 0 -5 6 -12 13
-14 8 -4 8 -6 0 -6 -6 -1 -9 -10 -6 -21 3 -12 0 -20 -6 -20 -7 0 -9 -5 -5 -11
3 -6 0 -15 -7 -20 -11 -7 -11 -9 -1 -9 7 0 10 -5 7 -10 -4 -6 -12 -7 -18 -3
-8 4 -8 1 1 -9 10 -13 10 -24 -2 -59 -8 -23 -12 -47 -9 -53 4 -5 -1 -7 -10 -3
-10 3 -17 2 -17 -3 0 -6 4 -10 9 -10 6 0 9 -9 8 -20 -1 -11 -5 -20 -10 -20 -5
0 -5 -9 -2 -21 4 -13 0 -28 -12 -41 -10 -12 -13 -19 -7 -15 6 3 11 0 11 -8 0
-8 -4 -12 -9 -9 -4 3 -5 -1 -2 -9 2 -7 1 -32 -4 -55 -6 -24 -6 -39 -1 -36 5 3
9 1 9 -3 0 -10 162 -9 179 1 6 4 11 18 11 32 0 13 4 24 9 24 5 0 8 8 7 18 -3
17 19 124 31 152 3 8 5 23 4 33 -1 10 4 17 14 17 12 0 15 -5 10 -17 -3 -10 -9
-36 -12 -58 -3 -22 -10 -46 -17 -54 -8 -12 -8 -13 2 -7 6 4 12 3 12 -1 0 -5
45 -8 101 -8 99 1 101 1 125 -28 13 -16 24 -33 24 -38 0 -5 8 -9 17 -9 9 0 14
-3 10 -6 -3 -3 5 -17 17 -31 22 -23 30 -25 130 -27 59 0 112 2 118 5 7 4 3 15
-11 30 -11 12 -23 31 -27 41 -3 10 -10 18 -16 18 -5 0 -8 7 -4 15 3 9 0 15 -9
15 -7 0 -17 5 -20 10 -4 6 -3 10 2 9 29 -7 133 67 133 94 0 6 3 7 7 4 10 -11
42 69 55 138 6 35 15 62 19 60 4 -3 5 3 3 12 -3 10 1 38 8 63 28 92 49 85
-258 86 -149 0 -277 4 -284 9 -8 5 -11 4 -7 -2 7 -11 -82 -11 -100 0 -6 4 -14
4 -17 -1z m441 -196 c4 -3 1 -6 -5 -6 -6 0 -9 -9 -7 -19 4 -23 -21 -61 -41
-61 -8 0 -14 4 -14 10 0 5 6 7 14 4 18 -7 30 12 15 22 -8 4 -9 3 -5 -4 4 -7 2
-12 -3 -12 -6 0 -11 5 -11 11 0 6 -6 9 -12 6 -7 -2 -12 -11 -10 -21 2 -9 -2
-16 -8 -16 -5 0 -11 5 -11 10 -1 6 -2 14 -3 19 -3 23 -14 20 -12 -3 2 -14 0
-26 -5 -26 -12 0 -29 36 -21 45 4 5 1 5 -6 1 -9 -5 -9 -12 -1 -27 10 -19 7
-20 -36 -17 -32 2 -44 7 -40 16 3 7 0 10 -6 7 -5 -4 -18 -1 -27 6 -13 11 -12
8 2 -9 11 -12 14 -22 8 -22 -19 0 -27 4 -24 13 1 4 -2 7 -8 7 -5 0 -10 -4 -10
-9 0 -15 -44 -8 -58 9 -12 13 -13 13 -8 -2 3 -12 0 -18 -10 -18 -8 0 -13 4 -9
9 3 5 1 13 -5 16 -6 4 -9 1 -8 -7 2 -8 -7 -13 -22 -13 -15 0 -26 -7 -28 -18
-5 -24 -21 -21 -19 3 1 11 4 20 8 20 4 0 5 13 4 29 -3 41 5 49 50 53 67 5 386
1 392 -6z"/>
<path d="M5405 4129 c-4 -6 -5 -12 -2 -15 2 -3 7 2 10 11 7 17 1 20 -8 4z"/>
<path d="M5546 4125 c4 -8 11 -15 16 -15 6 0 5 6 -2 15 -7 8 -14 15 -16 15 -2
0 -1 -7 2 -15z"/>
<path d="M6406 4383 c-3 -3 -51 -7 -105 -8 -65 -1 -105 -6 -115 -14 -9 -8 -16
-11 -16 -7 0 4 -10 0 -23 -9 -13 -8 -27 -12 -32 -8 -4 5 -5 3 -2 -3 9 -15 -19
-38 -34 -28 -8 4 -9 3 -5 -4 4 -7 2 -12 -5 -12 -7 0 -9 -3 -6 -7 4 -3 -8 -20
-26 -36 -17 -17 -27 -27 -20 -23 8 4 7 -2 -2 -21 -8 -15 -15 -36 -15 -45 0
-10 -4 -18 -9 -18 -4 0 -7 -11 -6 -25 2 -14 0 -23 -4 -20 -7 4 -9 -10 -13 -75
0 -8 -4 -19 -8 -25 -4 -5 -6 -18 -5 -27 2 -11 -3 -18 -13 -18 -12 0 -13 -3 -5
-8 7 -5 10 -18 7 -32 -7 -33 -12 -58 -18 -97 -5 -37 -13 -34 99 -37 74 -2 100
6 100 30 0 11 4 25 8 32 5 6 5 17 2 22 -3 6 -2 10 4 10 5 0 8 9 6 20 -2 11 2
21 8 21 57 6 340 2 344 -4 3 -5 9 -3 14 4 7 12 12 12 30 1 11 -8 19 -9 15 -4
-3 5 1 9 9 9 18 0 19 -9 3 -26 -11 -11 -10 -12 1 -6 10 6 12 1 6 -26 -8 -33
-9 -53 -6 -74 1 -11 177 -13 188 -2 4 4 8 15 9 25 1 9 11 62 23 117 12 55 24
114 27 130 3 17 9 44 14 60 4 17 16 69 26 117 9 48 20 86 23 84 3 -2 6 9 6 25
0 29 -1 31 -32 32 -10 1 -21 6 -25 12 -5 7 -8 6 -8 -1 0 -12 -29 -12 -49 1 -9
5 -12 4 -8 -2 7 -11 -82 -11 -100 0 -6 4 -14 4 -16 0 -6 -10 -208 -10 -223 -1
-6 4 -14 5 -18 1z m227 -212 c0 -11 -1 -27 -2 -35 -1 -10 -12 -14 -36 -12 -19
2 -32 -1 -29 -6 3 -5 14 -6 24 -3 10 3 21 2 24 -3 3 -5 -10 -9 -29 -10 -32 -1
-40 6 -36 31 1 5 -3 5 -9 2 -6 -4 -9 -13 -6 -21 3 -8 -1 -14 -10 -14 -9 0 -12
5 -8 12 5 7 3 8 -7 2 -20 -13 -32 -11 -47 6 -12 13 -13 13 -8 -4 5 -13 2 -17
-9 -13 -8 4 -17 2 -20 -3 -3 -6 -15 -6 -29 0 -13 5 -27 6 -30 3 -3 -4 -13 2
-22 13 -15 18 -15 18 -10 0 5 -13 2 -17 -9 -13 -8 4 -17 2 -20 -3 -3 -5 -15
-6 -28 -1 -12 5 -30 7 -40 5 -12 -1 -17 2 -13 11 3 9 0 12 -9 8 -8 -3 -12 -9
-9 -14 3 -5 0 -9 -5 -9 -18 0 -12 18 12 40 16 16 17 19 5 15 -26 -10 -22 10 5
23 28 15 75 17 262 16 146 -1 149 -2 148 -23z"/>
<path d="M6394 4148 c1 -7 6 -21 12 -31 9 -16 12 -16 23 -4 9 12 9 17 0 23 -8
5 -9 3 -4 -6 5 -8 3 -11 -6 -8 -8 3 -14 10 -14 16 0 5 -3 13 -7 17 -3 4 -6 1
-4 -7z"/>
<path d="M6513 4145 c0 -8 4 -12 9 -9 5 3 6 10 3 15 -9 13 -12 11 -12 -6z"/>
<path d="M6250 4135 c-7 -9 -11 -17 -9 -20 3 -2 10 5 17 15 14 24 10 26 -8 5z"/>
<path d="M6365 4129 c-4 -6 -5 -12 -2 -15 2 -3 7 2 10 11 7 17 1 20 -8 4z"/>
<path d="M6485 4131 c-3 -5 -2 -12 3 -15 5 -3 9 1 9 9 0 17 -3 19 -12 6z"/>
<path d="M6300 4120 c-8 -5 -12 -12 -9 -15 4 -3 12 1 19 10 14 17 11 19 -10 5z"/>
<path d="M7286 4382 c-4 -3 -40 -7 -79 -8 -40 -1 -72 -3 -72 -4 0 -3 -38 -12
-57 -13 -9 -1 -15 -3 -13 -6 5 -5 -26 -30 -38 -31 -5 0 -5 6 -1 13 4 7 3 9 -2
4 -5 -5 -9 -12 -9 -15 0 -4 -10 -18 -22 -32 -55 -63 -63 -74 -63 -83 0 -5 -8
-3 -17 4 -15 12 -16 12 -7 -1 11 -19 13 -60 1 -60 -4 0 -5 -5 -2 -10 4 -6 -2
-18 -12 -28 -11 -9 -13 -13 -7 -9 9 6 12 2 11 -12 -1 -13 -6 -20 -14 -17 -10
4 -10 1 0 -16 9 -16 9 -22 0 -25 -7 -2 -9 -11 -6 -20 5 -12 3 -14 -8 -8 -12 7
-12 6 -1 -7 7 -9 22 -15 32 -13 11 2 22 -1 25 -6 4 -5 12 -6 18 -2 16 10 137
11 143 1 3 -5 11 -5 17 -1 16 10 137 11 143 1 3 -5 11 -5 17 -1 16 10 137 11
143 1 3 -5 11 -5 17 -1 19 11 67 13 67 2 0 -6 -4 -8 -9 -4 -5 3 -12 2 -14 -2
-3 -5 -137 -8 -297 -8 -268 0 -293 -1 -301 -17 -9 -17 -22 -85 -23 -120 0 -10
-3 -18 -6 -18 -3 0 -6 -8 -6 -17 0 -17 22 -18 313 -18 202 0 313 4 313 10 0 6
5 3 10 -5 6 -9 10 -10 10 -3 0 6 9 10 20 8 11 -2 27 3 35 11 8 9 15 12 15 8 0
-4 10 1 22 12 14 12 18 14 13 4 -4 -8 7 0 25 18 18 17 37 32 42 32 5 0 7 4 4
8 -3 5 4 14 14 22 10 8 17 17 14 22 -3 4 -1 8 4 8 5 0 13 10 17 23 4 12 8 27
10 32 8 25 35 158 35 171 0 8 -4 12 -10 9 -5 -3 -10 0 -10 7 0 9 -3 9 -10 -2
-5 -8 -10 -10 -10 -4 0 13 -42 13 -52 -1 -5 -6 -8 -5 -8 4 0 11 -3 11 -15 1
-12 -10 -15 -10 -15 0 0 10 -3 10 -15 0 -8 -7 -15 -8 -15 -3 0 11 -36 11 -46
0 -4 -3 -15 -2 -25 3 -12 7 -19 6 -22 -3 -4 -9 -6 -8 -6 2 -1 11 -4 11 -16 1
-12 -10 -15 -10 -15 0 0 10 -3 10 -15 0 -8 -7 -15 -8 -15 -3 0 11 -36 11 -46
0 -4 -3 -15 -2 -25 3 -12 7 -19 6 -22 -3 -4 -9 -6 -8 -6 2 -1 11 -4 11 -16 1
-12 -10 -15 -10 -15 0 0 10 -3 10 -15 0 -8 -7 -15 -8 -15 -3 0 11 -36 11 -46
0 -4 -3 -15 -2 -25 3 -12 7 -19 6 -22 -3 -4 -9 -6 -8 -6 2 -1 11 -4 11 -16 1
-10 -9 -15 -9 -15 -1 0 12 6 13 65 15 22 1 46 5 53 9 6 5 12 4 12 -2 0 -13 42
-10 52 4 5 7 8 7 8 0 0 -12 69 -13 88 -2 6 5 12 4 12 -2 0 -13 42 -10 52 4 5
7 8 7 8 0 0 -12 69 -13 88 -2 6 5 12 4 12 -2 0 -13 42 -10 52 4 5 7 8 6 8 -1
0 -6 20 -9 52 -6 57 4 58 4 62 24 1 7 5 22 9 33 3 11 9 34 12 50 3 17 8 39 10
50 3 13 -3 25 -16 33 -12 8 -19 9 -16 4 7 -11 -95 -8 -113 3 -8 5 -11 4 -7 -2
7 -11 -82 -11 -100 0 -6 4 -14 4 -16 0 -6 -10 -208 -10 -223 -1 -6 4 -14 4
-18 0z"/>
<path d="M720 4368 c0 -10 -7 -18 -16 -18 -9 0 -34 -14 -55 -31 -21 -17 -39
-27 -40 -22 0 4 -5 -3 -10 -17 -8 -20 -12 -22 -20 -10 -9 13 -10 13 -6 -1 5
-16 -25 -73 -34 -65 -2 3 -5 -8 -5 -24 -1 -16 -5 -37 -9 -47 -8 -19 -11 -32
-13 -75 -1 -17 -8 -28 -16 -28 -8 0 -18 -4 -21 -10 -3 -5 0 -7 8 -4 8 3 14 -2
14 -11 0 -8 -10 -16 -21 -16 -17 -1 -18 -2 -3 -6 9 -2 17 -14 17 -25 0 -18 -2
-19 -17 -7 -15 13 -15 12 -5 -7 8 -16 8 -24 -1 -34 -9 -10 -9 -11 1 -6 18 11
15 -5 -5 -21 -10 -8 -12 -12 -5 -8 15 8 16 -19 2 -45 -17 -31 -2 -48 46 -52
24 -2 44 -1 44 2 0 3 24 3 52 1 29 -1 50 0 46 4 -3 4 0 21 7 38 15 36 15 37
15 73 0 25 1 26 70 22 39 -2 70 1 70 5 0 5 5 5 11 1 15 -9 109 -11 109 -2 0 4
14 3 30 -2 19 -5 30 -5 30 1 0 6 7 6 19 -1 13 -6 21 -6 23 0 2 6 15 4 32 -5
32 -17 49 -20 26 -5 -13 8 -13 10 1 10 24 0 27 -8 17 -48 -17 -68 -17 -91 0
-84 10 3 13 1 8 -6 -4 -7 -2 -12 3 -12 6 0 11 5 11 10 0 7 6 7 20 0 11 -6 20
-7 20 -3 0 9 77 9 86 0 16 -16 34 33 65 174 18 85 36 155 39 157 4 1 5 14 2
27 -2 14 0 25 5 25 5 0 10 8 10 18 -1 9 0 30 1 46 2 25 4 27 19 15 15 -13 15
-12 3 7 -9 14 -10 31 -5 50 5 16 7 35 6 42 -1 6 4 12 11 12 9 0 9 3 1 11 -13
13 -641 17 -662 4 -8 -4 -17 -2 -22 6 -7 11 -9 10 -9 -3z m460 -174 c0 -1 -5
-15 -11 -31 -6 -15 -12 -37 -13 -48 -1 -20 -13 -22 -181 -15 -11 0 -53 -1 -93
-3 l-72 -4 16 26 17 26 -29 -26 c-18 -16 -40 -25 -59 -24 -30 1 -31 3 -27 57
4 36 57 45 260 45 105 0 192 -1 192 -3z"/>
<path d="M1130 4145 c4 -20 0 -35 -11 -35 -5 0 -8 4 -5 8 2 4 -4 8 -14 8 -10
0 -16 -5 -13 -11 2 -6 17 -11 33 -11 23 0 29 4 27 18 -2 9 -7 21 -11 25 -4 5
-7 4 -6 -2z"/>
<path d="M760 4129 c0 -6 -6 -9 -13 -6 -8 3 -14 0 -14 -7 0 -19 33 -13 34 6 1
10 0 18 -3 18 -2 0 -4 -5 -4 -11z"/>
<path d="M858 4129 c6 -9 10 -18 7 -20 -2 -3 6 -5 20 -5 16 0 23 5 22 16 0 9
-6 17 -13 17 -7 0 -10 -7 -6 -16 4 -12 0 -11 -19 4 -13 11 -18 13 -11 4z"/>
<path d="M921 4128 c-1 -21 15 -32 25 -17 4 7 3 9 -4 5 -6 -3 -13 2 -15 11 -4
16 -5 16 -6 1z"/>
<path d="M970 4133 c0 -7 8 -17 18 -22 14 -8 18 -5 19 12 2 17 0 19 -7 7 -9
-13 -11 -13 -20 0 -6 9 -10 11 -10 3z"/>
<path d="M1034 4133 c3 -6 0 -13 -6 -16 -7 -2 -11 -7 -8 -10 3 -3 12 -2 20 3
13 8 13 11 1 22 -8 8 -11 8 -7 1z"/>
<path d="M780 4109 c0 -5 5 -7 10 -4 6 3 10 8 10 11 0 2 -4 4 -10 4 -5 0 -10
-5 -10 -11z"/>
<path d="M835 4110 c-3 -5 -1 -10 4 -10 6 0 11 5 11 10 0 6 -2 10 -4 10 -3 0
-8 -4 -11 -10z"/>
<path d="M3395 4363 c-19 -7 -35 -10 -35 -7 0 3 -10 -4 -22 -16 -24 -22 -44
-27 -32 -8 4 7 3 8 -5 4 -6 -4 -9 -11 -6 -15 7 -12 -30 -43 -39 -34 -4 5 -6 1
-4 -7 2 -8 -3 -14 -10 -12 -8 1 -11 -2 -8 -7 4 -5 -4 -22 -17 -38 -13 -15 -22
-34 -19 -42 2 -8 0 -11 -5 -8 -6 4 -8 -4 -5 -20 4 -21 2 -25 -12 -20 -13 5
-15 3 -7 -11 10 -19 3 -82 -9 -82 -4 0 -6 -11 -5 -25 2 -14 -1 -25 -6 -25 -6
0 -7 -4 -4 -10 3 -5 3 -16 -2 -22 -7 -13 -8 -19 -11 -76 -1 -18 -6 -31 -10
-28 -10 6 -9 -71 1 -80 4 -4 7 -2 7 5 0 9 5 9 20 1 14 -8 20 -8 20 0 0 8 6 8
20 0 14 -8 20 -8 20 0 0 8 6 8 20 0 11 -6 20 -7 20 -2 0 5 23 6 50 2 28 -4 50
-4 50 0 0 4 23 4 50 0 28 -4 50 -3 50 2 0 5 9 4 20 -2 14 -8 20 -8 20 0 0 8 6
8 20 0 14 -8 20 -8 20 0 0 8 6 8 20 0 11 -6 20 -7 20 -2 0 5 23 6 50 2 28 -4
50 -4 50 -1 0 3 21 6 48 6 56 1 144 24 136 36 -3 5 0 9 6 9 17 0 111 100 104
111 -3 5 0 9 6 9 6 0 8 5 5 10 -3 6 -2 10 3 10 5 0 14 28 20 63 7 34 19 91 27
127 9 36 17 74 19 85 2 11 4 20 6 20 2 0 5 19 11 74 l4 35 -318 0 c-222 1
-328 -3 -352 -11z m440 -174 c4 -5 2 -9 -3 -9 -5 0 -9 -8 -9 -17 1 -42 -16
-93 -32 -94 -13 -1 -13 -2 2 -6 9 -2 15 -9 12 -14 -4 -5 -8 -18 -10 -30 -5
-27 -25 -50 -36 -43 -5 3 -9 -1 -9 -8 0 -9 -3 -9 -10 2 -5 8 -10 11 -10 5 0
-5 -16 -11 -35 -12 -19 -1 -35 3 -35 8 0 6 5 7 10 4 6 -3 16 -3 23 2 6 4 26 7
44 8 17 0 35 4 40 9 5 5 -9 7 -32 3 -22 -3 -34 -3 -27 0 14 6 16 33 2 33 -5 0
-9 -6 -7 -12 1 -7 -5 -13 -13 -13 -8 0 -14 6 -12 13 1 8 -2 11 -9 7 -8 -5 -8
-10 0 -18 13 -13 14 -27 3 -27 -5 0 -13 10 -19 22 l-10 22 -5 -22 c-4 -12 -2
-20 3 -16 5 3 6 -2 3 -10 -4 -11 -13 -7 -36 17 -17 18 -26 25 -19 16 6 -9 8
-19 5 -22 -8 -8 -33 16 -27 25 2 4 -4 5 -13 1 -11 -4 -13 -8 -6 -11 7 -2 9 -8
6 -14 -4 -5 -17 0 -33 14 -14 12 -20 16 -14 9 10 -12 10 -18 0 -30 -10 -14
-10 -14 5 -3 13 10 17 10 20 0 4 -11 8 -11 20 0 12 9 18 10 23 2 5 -8 10 -8
20 0 9 8 14 7 18 -3 4 -10 -10 -13 -59 -13 -55 0 -63 2 -59 16 3 10 -4 25 -17
36 -13 10 -17 12 -10 4 26 -30 0 -37 -34 -10 -16 13 -17 13 -9 0 5 -8 11 -24
12 -35 3 -16 1 -17 -7 -5 -9 13 -10 13 -10 0 0 -13 -1 -13 -10 0 -5 8 -10 10
-10 5 0 -6 -16 -11 -34 -11 -23 0 -32 4 -27 11 5 5 7 18 6 27 -2 10 1 20 6 24
5 3 7 9 4 14 -8 13 15 110 26 110 6 0 8 4 4 10 -3 5 6 15 21 23 30 16 410 22
419 6z m-343 -218 c-4 -11 -7 -12 -10 -2 -3 10 -6 10 -12 1 -5 -9 -9 -8 -13 2
-3 9 3 14 18 14 16 0 21 -4 17 -15z"/>
<path d="M3795 4135 c0 -13 3 -21 8 -18 4 2 7 10 7 18 0 8 -3 16 -7 18 -5 3
-8 -5 -8 -18z"/>
<path d="M3399 4017 c8 -9 11 -21 7 -24 -4 -4 -11 -1 -16 7 -7 11 -10 12 -10
2 0 -7 -4 -11 -8 -8 -5 3 -9 -1 -9 -9 0 -8 8 -11 21 -8 12 2 27 5 34 5 18 2
15 13 -10 34 -19 16 -20 16 -9 1z"/>
<path d="M3767 4019 c7 -7 15 -10 18 -7 3 3 -2 9 -12 12 -14 6 -15 5 -6 -5z"/>
<path d="M2597 4081 c-4 -17 -3 -21 5 -13 5 5 8 16 6 23 -3 8 -7 3 -11 -10z"/>
<path d="M2007 4069 c7 -7 15 -10 18 -7 3 3 -2 9 -12 12 -14 6 -15 5 -6 -5z"/>
<path d="M2030 4020 c-8 -5 -12 -12 -9 -15 4 -3 12 1 19 10 14 17 11 19 -10 5z"/>
<path d="M5946 4017 c3 -10 9 -15 12 -12 3 3 0 11 -7 18 -10 9 -11 8 -5 -6z"/>
<path d="M1713 4006 c3 -7 1 -18 -4 -23 -7 -7 0 -9 18 -8 22 1 27 6 25 21 -5
25 -12 32 -12 10 0 -9 -5 -14 -10 -11 -6 4 -8 11 -5 16 4 5 1 9 -5 9 -7 0 -10
-6 -7 -14z"/>
<path d="M1983 4000 c1 -10 5 -16 10 -13 4 2 14 -1 22 -7 25 -21 16 -5 -9 18
-23 19 -25 19 -23 2z"/>
<path d="M3130 4009 c0 -5 5 -7 10 -4 6 3 10 8 10 11 0 2 -4 4 -10 4 -5 0 -10
-5 -10 -11z"/>
<path d="M1940 3992 c0 -5 7 -9 15 -9 8 0 15 4 15 9 0 4 -7 8 -15 8 -8 0 -15
-4 -15 -8z"/>
<path d="M5010 3989 c0 -5 5 -7 10 -4 6 3 10 8 10 11 0 2 -4 4 -10 4 -5 0 -10
-5 -10 -11z"/>
<path d="M6853 3974 c0 -16 13 -19 21 -5 3 5 0 11 -7 14 -8 3 -14 -1 -14 -9z"/>
<path d="M5930 3969 c0 -5 5 -7 10 -4 6 3 10 8 10 11 0 2 -4 4 -10 4 -5 0 -10
-5 -10 -11z"/>
<path d="M5010 3950 c0 -5 5 -10 11 -10 5 0 7 5 4 10 -3 6 -8 10 -11 10 -2 0
-4 -4 -4 -10z"/>
<path d="M1373 3925 c0 -8 4 -12 9 -9 5 3 6 10 3 15 -9 13 -12 11 -12 -6z"/>
<path d="M5766 3908 c3 -5 10 -6 15 -3 13 9 11 12 -6 12 -8 0 -12 -4 -9 -9z"/>
<path d="M1726 3613 c-4 -5 -12 -9 -17 -9 -5 -1 -13 -2 -17 -3 -8 -1 -26 -34
-32 -56 -1 -5 -7 -19 -13 -30 -11 -20 -13 -26 -16 -46 0 -5 -4 -8 -8 -6 -5 3
-9 -7 -10 -21 0 -15 -6 -28 -12 -30 -5 -2 -7 -10 -4 -19 4 -10 2 -14 -4 -10
-7 5 -9 0 -6 -13 3 -11 1 -20 -4 -20 -5 0 -9 -9 -9 -19 0 -18 10 -20 57 -12 4
0 10 12 13 25 3 13 13 26 21 30 11 4 14 2 9 -7 -6 -9 -4 -9 8 1 11 9 18 10 23
2 4 -6 12 -7 23 -1 21 11 46 -5 56 -37 5 -13 10 -21 13 -18 3 3 15 1 26 -5 14
-8 18 -8 13 0 -4 6 -3 11 2 11 12 0 8 35 -6 53 -7 8 -9 23 -5 32 5 14 3 16 -7
10 -10 -6 -12 -4 -7 8 4 10 2 17 -4 17 -6 0 -8 7 -5 16 3 8 2 12 -4 9 -6 -3
-10 2 -10 12 0 11 -4 23 -10 29 -5 5 -11 18 -14 29 -9 42 -19 65 -28 65 -5 0
-6 5 -3 10 7 12 2 13 -9 3z m9 -161 c2 -20 -1 -29 -11 -29 -9 0 -10 4 -4 12 6
7 3 11 -10 11 -10 0 -17 -4 -14 -7 2 -4 0 -10 -5 -14 -6 -3 -8 6 -5 22 3 15
11 31 17 35 7 4 8 8 4 8 -5 0 -5 5 -1 11 9 15 24 -11 29 -49z"/>
<path d="M2195 3610 c-3 -6 -17 -8 -29 -6 -30 5 -42 -3 -48 -35 -4 -23 -2 -25
24 -21 l29 4 -1 -68 c-4 -168 -3 -171 28 -171 28 0 29 2 29 52 0 28 3 57 7 63
4 7 3 12 -2 12 -10 0 -9 30 2 48 4 6 3 12 -2 12 -5 0 -7 11 -4 25 3 19 11 25
29 25 17 0 23 4 20 14 -3 7 0 19 6 25 11 11 10 12 -38 15 -11 0 -25 4 -32 9
-6 4 -14 3 -18 -3z"/>
<path d="M2444 3611 c5 -7 -3 -11 -20 -11 -15 0 -47 -15 -74 -36 l-47 -36 3
-56 c3 -80 6 -90 21 -96 8 -3 11 -10 8 -16 -3 -5 0 -10 8 -10 8 0 24 -9 37
-20 12 -11 26 -17 31 -14 5 3 18 0 30 -7 17 -8 20 -8 14 1 -5 9 -2 10 13 6 11
-4 23 -2 27 4 3 6 10 8 15 5 5 -3 16 2 24 11 9 8 16 12 16 7 0 -4 10 8 22 27
26 43 37 89 28 115 -4 11 -2 23 4 27 7 5 4 8 -7 8 -10 0 -15 5 -12 10 3 6 -1
13 -9 16 -9 3 -13 10 -11 15 3 5 -6 11 -20 15 -14 3 -22 11 -18 17 4 6 0 8 -9
4 -9 -3 -21 0 -27 6 -6 6 -11 8 -11 4 0 -4 -10 -3 -21 4 -15 8 -19 8 -15 0z
m70 -90 c16 -16 25 -34 22 -39 -4 -6 -2 -14 4 -17 8 -5 8 -11 1 -19 -6 -7 -8
-16 -4 -19 3 -4 -1 -7 -11 -7 -9 0 -14 -4 -11 -10 3 -5 1 -10 -5 -10 -6 0 -9
-4 -5 -9 3 -5 0 -13 -6 -17 -8 -4 -9 -3 -5 4 4 7 1 12 -9 12 -10 0 -13 -5 -9
-12 4 -7 -3 -4 -15 7 -12 11 -22 15 -21 10 6 -28 0 -36 -16 -21 -8 9 -22 16
-30 16 -8 0 -12 5 -9 10 4 6 11 8 16 5 5 -4 9 -1 9 5 0 7 -8 9 -22 5 -17 -6
-20 -4 -15 9 4 10 3 14 -3 11 -12 -7 -6 57 8 81 6 11 12 15 12 11 0 -5 7 -1
16 7 26 26 76 20 108 -13z"/>
<path d="M3561 3611 c-1 -9 -8 -11 -22 -8 -11 3 -36 -2 -55 -11 -56 -28 -44
-92 26 -147 21 -16 41 -36 45 -44 8 -19 -15 -44 -29 -32 -6 5 -14 9 -18 8 -3
-1 -10 2 -15 7 -5 5 -3 6 5 2 6 -4 12 -2 12 3 0 6 -7 11 -15 11 -8 0 -15 4
-15 8 0 5 -7 9 -15 9 -10 0 -12 -4 -5 -12 8 -9 6 -14 -5 -19 -20 -7 -19 -18 4
-45 12 -14 25 -20 32 -15 8 4 9 3 5 -4 -5 -8 0 -11 16 -8 13 2 29 -2 37 -8 11
-8 13 -8 8 1 -4 6 -3 14 3 18 5 3 10 1 10 -6 0 -7 11 2 24 20 14 19 22 40 19
49 -5 11 -3 13 8 7 10 -7 9 -1 -4 18 -13 19 -14 27 -5 28 7 0 2 5 -11 10 -16
6 -21 14 -17 25 6 15 4 15 -11 3 -15 -12 -16 -12 -10 4 4 12 3 16 -4 11 -6 -3
-19 3 -30 15 -13 14 -15 21 -7 21 9 0 9 3 -2 10 -12 8 -11 10 6 10 12 0 27 -7
34 -15 10 -13 14 -12 28 2 20 19 24 53 5 46 -7 -3 -17 5 -22 18 -5 13 -10 18
-10 10z"/>
<path d="M4003 3605 c-12 -13 -24 -287 -12 -279 4 2 12 -3 19 -11 19 -23 40 0
36 41 -1 19 1 34 6 34 5 0 4 9 -2 20 -8 15 -8 18 3 14 7 -2 21 -25 32 -49 10
-25 22 -45 27 -45 5 0 6 -6 2 -12 -4 -7 -4 -10 1 -6 4 4 14 3 21 -2 8 -8 17
-6 28 5 14 15 14 18 1 31 -8 9 -15 24 -15 35 0 10 -4 19 -8 19 -5 0 -14 11
-20 25 -6 14 -8 25 -3 25 18 0 46 36 46 60 0 14 5 28 10 32 6 5 5 8 -3 8 -7 0
-11 4 -8 9 9 14 -71 49 -107 46 -17 -2 -34 1 -37 5 -3 4 -10 2 -17 -5z m102
-67 c4 -3 1 -15 -6 -27 -11 -16 -16 -18 -28 -8 -12 9 -13 9 -7 0 4 -7 5 -13 1
-13 -12 0 -22 45 -11 52 12 8 42 5 51 -4z"/>
<path d="M4330 3613 c0 -8 -18 -11 -55 -9 l-55 3 -1 -61 c-3 -207 0 -244 21
-231 5 3 10 1 10 -6 0 -8 5 -7 17 2 13 11 17 11 20 2 3 -9 10 -10 23 -3 13 7
20 6 23 -3 4 -9 6 -8 6 2 1 11 4 11 16 1 13 -10 15 -9 15 9 0 15 4 20 13 15 8
-5 8 -3 -2 9 -7 9 -11 26 -8 36 3 14 1 18 -9 14 -8 -3 -12 -9 -9 -13 3 -5 0
-12 -6 -16 -8 -4 -9 -3 -5 4 4 7 2 12 -4 12 -6 0 -8 5 -4 12 4 7 3 8 -5 4 -6
-4 -9 -12 -6 -17 4 -5 -1 -9 -9 -9 -9 0 -19 0 -23 0 -5 0 -8 3 -8 8 0 4 -4 13
-9 21 -7 11 -6 12 5 6 11 -7 12 -6 2 7 -18 21 -7 28 42 28 28 0 47 6 56 17 9
11 10 14 2 9 -9 -5 -11 -2 -7 8 3 9 11 13 18 9 7 -3 6 -1 -1 7 -13 14 -46 24
-39 11 3 -4 -8 -7 -23 -6 -21 0 -27 4 -24 15 3 9 -2 8 -13 -5 -13 -16 -16 -17
-11 -3 3 10 2 20 -4 23 -20 13 2 23 48 22 39 0 47 3 45 16 -2 10 2 17 8 17 5
0 10 -5 10 -12 0 -6 3 -8 7 -5 9 10 -28 48 -39 40 -6 -3 -14 1 -19 8 -6 9 -9
10 -9 2z"/>
<path d="M4443 3613 c4 -6 1 -13 -6 -16 -9 -3 -13 -26 -12 -76 1 -40 -2 -74
-7 -77 -4 -3 -5 -11 -1 -17 13 -21 13 -78 0 -70 -9 5 -9 3 0 -9 7 -8 10 -18 6
-21 -3 -4 1 -7 10 -7 9 0 17 -6 17 -12 0 -9 4 -8 10 2 5 8 10 11 10 5 0 -5 4
-4 8 2 4 7 7 38 7 68 -2 59 -2 59 67 59 9 0 15 2 14 5 -6 10 21 30 30 23 4 -4
4 -2 0 5 -3 6 -2 14 3 17 5 4 8 18 5 32 -3 18 -1 23 7 18 8 -4 9 -3 5 5 -4 6
-12 9 -17 6 -5 -4 -9 0 -9 8 0 19 -39 38 -85 40 -22 1 -46 6 -54 11 -9 6 -12
5 -8 -1z m97 -78 c9 -11 9 -15 1 -15 -7 0 -10 -4 -7 -9 8 -12 -15 -20 -34 -12
-13 5 -16 15 -11 44 2 13 38 7 51 -8z"/>
<path d="M5530 3614 c0 -7 -15 -12 -32 -12 -68 1 -64 8 -64 -112 1 -61 -3
-110 -7 -110 -5 0 -5 -5 -1 -11 4 -7 7 -21 8 -33 1 -18 7 -21 46 -21 25 0 48
-4 52 -10 5 -6 8 -6 8 1 0 6 11 10 24 9 20 -3 25 2 28 30 2 19 1 32 -2 30 -4
-2 -18 2 -33 10 -28 14 -39 11 -30 -11 7 -19 -12 -18 -28 3 -10 11 -10 14 -1
9 6 -4 12 -3 12 3 0 5 -5 11 -12 13 -6 2 -9 12 -5 21 5 12 18 17 51 17 33 0
45 4 50 18 3 9 9 24 12 32 5 13 4 13 -5 0 -9 -13 -11 -13 -11 3 0 9 -5 17 -11
17 -5 0 -8 -4 -5 -8 7 -11 -71 -8 -81 3 -5 4 -2 5 5 1 6 -4 12 -2 12 3 0 6 -4
11 -8 11 -5 0 -9 6 -9 14 0 10 14 13 46 13 44 0 46 1 49 31 3 28 1 31 -19 27
-13 -3 -27 1 -31 8 -5 8 -8 8 -8 1z m18 -249 c-3 -3 -9 2 -12 12 -6 14 -5 15
5 6 7 -7 10 -15 7 -18z"/>
<path d="M5691 3613 c-1 -7 -6 -12 -13 -10 -11 2 -20 -29 -32 -108 -6 -40 -13
-75 -16 -85 -1 -3 -3 -9 -5 -15 -1 -5 -3 -12 -4 -15 -5 -11 -6 -60 -1 -61 3
-1 17 -2 33 -3 28 -2 31 2 27 42 -1 12 3 22 8 22 6 0 8 10 4 22 -4 15 -2 19 8
13 10 -6 10 -4 3 10 -6 10 -8 27 -5 37 3 14 12 -1 28 -47 13 -37 21 -72 17
-78 -3 -5 -1 -7 4 -4 6 4 13 0 17 -8 3 -8 16 -14 30 -13 13 1 23 5 20 9 -2 4
0 10 6 14 6 4 8 10 5 15 -3 5 -1 11 5 15 5 3 10 15 10 26 0 11 4 18 9 15 5 -4
7 3 4 14 -3 11 -1 20 5 20 6 0 9 10 7 21 -3 12 -1 18 3 15 4 -4 7 -11 8 -14 0
-4 4 -35 9 -70 4 -34 12 -65 16 -68 5 -3 6 -11 2 -17 -4 -7 0 -6 10 2 12 9 17
10 17 2 0 -7 5 -9 10 -6 12 7 10 115 -2 115 -5 0 -4 9 2 19 7 13 7 20 0 23 -6
2 -12 21 -14 44 -1 22 -6 47 -11 54 -6 10 -4 12 11 7 18 -7 18 -6 2 6 -10 8
-15 17 -11 20 3 4 0 7 -8 8 -8 0 -22 2 -31 4 -23 4 -32 -9 -53 -82 -11 -35
-22 -63 -27 -63 -4 0 -5 -6 -2 -14 3 -8 1 -16 -4 -20 -5 -3 -9 0 -9 7 -1 7
-13 43 -27 80 -15 38 -24 73 -21 78 4 5 -3 9 -14 9 -10 0 -22 6 -24 13 -4 10
-6 10 -6 0z"/>
<path d="M6045 3612 c4 -8 2 -13 -6 -11 -8 1 -19 1 -25 0 -14 -1 -24 -60 -12
-67 5 -3 6 -10 2 -15 -9 -15 -10 -99 -2 -102 4 -1 1 -14 -6 -29 -10 -19 -11
-27 -3 -25 7 1 11 -7 9 -20 -2 -13 2 -23 8 -23 6 0 8 -5 4 -12 -5 -8 0 -7 11
2 14 11 19 12 22 3 3 -9 10 -10 24 -3 14 8 19 7 19 -2 0 -8 3 -9 8 -3 4 6 18
10 32 10 22 0 25 5 25 37 1 27 -3 34 -14 30 -10 -4 -12 -1 -7 9 4 8 -1 5 -11
-6 -19 -21 -53 -28 -52 -10 0 6 9 9 20 8 10 -2 19 2 19 7 0 6 -3 9 -7 9 -27
-4 -43 3 -43 21 0 17 7 20 44 20 51 0 70 16 53 45 -11 19 -47 31 -47 16 0 -4
-10 -7 -23 -7 -15 0 -23 6 -23 17 0 10 5 15 11 11 5 -3 4 2 -4 11 -13 16 -11
18 25 17 61 -1 71 2 69 22 -2 22 -24 40 -38 31 -5 -3 -13 1 -18 8 -6 10 -9 11
-9 2 0 -7 -8 -13 -18 -13 -10 0 -24 6 -31 13 -11 10 -12 9 -6 -1z"/>
<path d="M6435 3609 c-4 -6 -13 -8 -21 -5 -21 8 -32 -23 -28 -77 2 -30 0 -46
-6 -42 -11 7 -14 -8 -3 -19 4 -3 8 -14 9 -24 2 -12 -2 -10 -16 8 -11 14 -17
31 -15 39 4 9 0 11 -10 7 -9 -3 -15 0 -15 7 0 7 -9 23 -20 35 -12 12 -18 22
-14 22 17 0 -41 44 -59 45 -28 2 -32 -21 -29 -164 l3 -130 27 1 c24 1 27 5 29
36 1 19 8 39 15 43 8 6 9 9 2 9 -13 0 -24 69 -13 75 7 5 65 -77 60 -84 -2 -2
1 -7 6 -10 5 -3 19 -20 31 -37 41 -60 81 -47 77 23 -2 18 1 31 5 28 10 -6 8
15 -3 32 -4 6 -3 14 3 18 6 4 7 11 4 17 -11 18 -10 118 1 118 5 0 4 4 -4 9 -7
5 -10 14 -7 20 4 6 5 11 2 11 -3 0 -8 -5 -11 -11z"/>
<path d="M1894 3598 c-7 -12 -6 -184 2 -222 6 -31 65 -81 79 -68 4 4 14 7 23
7 28 1 62 16 62 26 0 6 4 8 8 5 9 -5 14 19 16 77 0 20 5 37 9 37 5 0 5 6 1 12
-9 14 -9 87 0 95 3 3 1 13 -4 23 -8 16 -43 21 -55 8 -3 -3 -6 -48 -7 -99 -1
-99 -5 -122 -18 -114 -4 3 -11 -2 -14 -10 -5 -13 -9 -13 -26 -3 -11 7 -20 17
-20 22 0 5 10 1 23 -10 l22 -19 -23 26 c-18 21 -23 38 -23 85 -1 32 0 61 1 64
7 21 7 40 -1 40 -4 0 -6 6 -3 13 5 15 -44 19 -52 5z"/>
<path d="M2745 3598 c-15 -4 -40 -19 -55 -33 -14 -14 -30 -22 -35 -18 -4 5 -6
4 -3 -2 10 -17 -11 -57 -24 -49 -10 6 -9 3 0 -9 8 -9 11 -20 8 -26 -11 -17 32
-98 63 -120 17 -12 31 -19 31 -15 0 3 6 2 13 -3 6 -6 20 -9 30 -8 9 2 17 -1
17 -7 0 -7 5 -7 13 -1 6 5 22 8 34 7 12 0 20 2 18 6 -5 7 45 35 57 32 5 -1 7
1 6 6 -3 14 14 62 22 62 15 0 -3 41 -22 51 -15 8 -19 8 -14 0 4 -6 2 -11 -3
-11 -6 0 -11 5 -11 11 0 6 -5 7 -12 2 -17 -11 -30 -11 -50 -1 -23 11 -53 -29
-36 -49 6 -7 18 -12 27 -11 11 2 15 -3 13 -17 -3 -20 -3 -20 11 -1 8 12 16 15
20 9 6 -10 -3 -17 -28 -23 -5 -1 -16 -7 -24 -13 -11 -9 -13 -9 -8 -1 4 7 0 14
-8 17 -10 4 -12 1 -9 -11 5 -15 4 -15 -8 -2 -7 9 -20 15 -28 15 -14 -1 -38 23
-37 35 0 3 -5 15 -12 28 -8 15 -8 22 -1 22 6 0 9 4 5 9 -3 5 2 17 11 25 8 9
12 16 7 16 -4 0 0 5 10 11 9 5 22 7 29 3 7 -4 8 -3 4 4 -12 20 51 14 95 -9 23
-11 38 -16 35 -10 -4 5 1 14 10 19 14 8 13 12 -8 34 -12 14 -29 23 -35 21 -7
-3 -13 -1 -13 4 0 10 -68 11 -105 1z"/>
<path d="M2998 3599 c-11 -6 -14 -20 -11 -50 4 -28 1 -44 -8 -50 -8 -5 -9 -9
-4 -9 6 0 10 -32 10 -77 -1 -85 2 -106 16 -97 5 3 9 0 9 -7 0 -7 4 -8 13 -2 6
5 31 8 55 7 23 -1 43 2 43 7 1 5 2 15 3 22 1 6 -3 15 -9 20 -6 4 -5 10 3 16
11 7 11 9 -2 14 -8 3 -18 1 -22 -4 -4 -6 -15 -2 -30 12 -17 16 -21 26 -13 35
5 7 6 15 2 17 -5 3 -8 37 -7 75 1 59 -2 71 -16 75 -9 2 -24 1 -32 -4z m70
-211 c7 -7 12 -17 12 -22 0 -6 -5 -4 -10 4 -9 13 -10 13 -10 0 0 -13 -1 -13
-10 0 -19 29 -6 42 18 18z m35 -13 c-3 -9 -8 -14 -10 -11 -3 3 -2 9 2 15 9 16
15 13 8 -4z"/>
<path d="M3229 3549 c-13 -32 -27 -59 -31 -59 -4 0 -5 -7 -2 -15 4 -8 1 -15
-6 -15 -6 0 -9 -4 -5 -9 3 -5 1 -12 -5 -16 -6 -4 -8 -11 -5 -16 4 -5 1 -9 -5
-9 -6 0 -8 -4 -5 -10 3 -5 -2 -10 -12 -10 -15 0 -16 -2 -3 -10 9 -6 11 -13 5
-17 -14 -11 -15 -64 -1 -55 6 3 18 7 26 7 8 0 20 11 27 25 13 27 53 47 53 27
0 -7 3 -8 8 -2 6 9 22 11 47 5 6 -1 13 -2 17 -1 3 0 11 -13 17 -29 7 -21 15
-28 25 -24 9 3 16 1 16 -6 0 -6 5 -8 11 -4 6 4 9 19 5 36 -3 16 -2 27 3 23 5
-3 13 -1 16 5 4 6 3 10 -2 9 -22 -4 -33 3 -33 21 0 11 -5 20 -11 20 -7 0 -10
12 -7 29 2 17 1 28 -3 25 -4 -2 -11 1 -15 7 -3 6 -1 15 6 19 8 5 5 9 -9 13
-15 3 -21 13 -21 32 0 32 -23 57 -55 60 -19 3 -26 -6 -46 -56z m68 -83 c9 -28
8 -36 -4 -40 -22 -9 -23 -8 -23 17 -1 22 -1 22 -15 -3 -8 -14 -14 -20 -15 -15
0 6 7 21 16 33 8 12 12 22 9 22 -3 0 -3 5 0 10 11 18 22 10 32 -24z"/>
<path d="M3702 3599 c-13 -5 -25 -15 -28 -24 -3 -8 -11 -12 -17 -8 -5 3 -7 2
-4 -4 3 -5 7 -26 9 -46 1 -20 5 -34 8 -32 8 5 45 -38 42 -48 -1 -5 1 -6 5 -4
15 9 42 -19 40 -41 0 -11 -5 -18 -9 -16 -4 3 -8 0 -8 -7 0 -7 -9 -2 -20 11
-12 13 -26 20 -35 16 -9 -3 -13 -2 -10 3 3 5 0 13 -6 17 -8 4 -9 3 -5 -4 4 -7
2 -12 -4 -12 -6 0 -8 -4 -5 -10 3 -5 1 -10 -6 -10 -8 0 -9 -3 0 -13 6 -8 8
-17 4 -20 -3 -4 1 -7 9 -7 9 0 18 -5 20 -10 10 -30 132 -10 136 23 11 67 1
107 -25 107 -7 0 -13 5 -13 10 0 6 5 10 11 10 5 0 7 5 3 11 -5 8 -9 8 -14 -1
-10 -16 -33 -2 -26 15 2 7 -2 12 -12 11 -9 0 -18 7 -20 17 -4 21 21 23 40 3
12 -11 17 -11 33 0 10 7 23 10 29 7 17 -10 -17 30 -39 47 -23 17 -53 20 -83 9z"/>
<path d="M4655 3601 c-3 -2 -5 -69 -5 -147 0 -137 1 -143 20 -139 11 2 22 -1
25 -6 4 -5 11 -6 17 -3 6 4 25 7 42 8 24 1 32 6 34 24 2 13 8 20 14 16 6 -4 8
-3 5 3 -3 5 -22 9 -41 8 -20 -1 -33 2 -30 7 3 4 9 6 13 4 4 -3 8 1 8 9 0 11
-4 11 -21 0 -21 -14 -21 -13 -23 32 -2 28 2 50 10 55 9 6 9 8 0 8 -18 0 -16
20 5 44 16 20 16 20 -1 6 -17 -13 -19 -12 -17 5 6 55 0 71 -25 71 -14 0 -28
-2 -30 -5z"/>
<path d="M4915 3594 c-8 -9 -15 -22 -15 -29 0 -7 -6 -20 -12 -27 -7 -7 -14
-20 -15 -28 -1 -8 -10 -40 -22 -70 -13 -37 -25 -55 -36 -54 -11 2 -13 -1 -5
-11 5 -7 8 -27 5 -46 -3 -19 -3 -29 1 -22 3 7 12 9 19 6 8 -3 22 2 30 11 9 9
14 16 10 16 -3 0 -1 9 5 20 8 16 15 18 35 10 14 -5 27 -5 30 -1 3 5 13 8 23 6
9 -2 20 -4 24 -4 4 -1 13 -13 21 -28 7 -16 19 -27 25 -25 7 1 12 -3 12 -10 0
-8 5 -7 15 3 13 12 14 21 5 43 -5 15 -7 32 -4 38 4 7 2 8 -4 4 -16 -10 -15 16
1 34 10 12 9 12 -4 2 -14 -10 -18 -10 -23 3 -4 11 -2 14 7 10 6 -4 3 1 -7 9
-20 16 -20 16 0 17 18 0 17 1 -2 9 -25 10 -41 52 -17 43 8 -3 3 6 -12 21 -14
14 -24 30 -20 35 13 23 -49 35 -70 15z m39 -116 c-3 -4 -1 -8 4 -8 5 0 10 -11
10 -25 0 -14 -5 -25 -11 -25 -6 0 -7 3 -4 7 4 3 -2 12 -13 20 -16 12 -18 17
-8 39 8 17 14 21 19 12 4 -7 5 -16 3 -20z m-19 -37 c3 -5 0 -13 -6 -17 -7 -4
-9 -3 -5 4 3 5 0 13 -6 15 -9 4 -10 6 -1 6 6 1 14 -3 18 -8z"/>
<path d="M5223 3600 c-41 -9 -88 -47 -104 -85 -32 -73 23 -195 84 -186 4 1 7
-3 7 -8 0 -12 92 -7 128 8 16 7 35 24 42 39 6 15 8 24 4 19 -4 -4 -16 0 -26
10 -12 10 -18 12 -18 4 0 -7 -5 -9 -10 -6 -6 4 -7 11 -4 17 4 7 2 8 -4 4 -6
-4 -8 -14 -5 -23 4 -11 3 -14 -5 -9 -7 4 -12 2 -12 -6 0 -8 -4 -7 -11 4 -10
17 -39 14 -39 -4 0 -7 5 -6 13 1 10 8 14 7 14 -3 0 -9 -8 -13 -21 -10 -12 3
-26 6 -33 8 -20 4 -53 38 -53 55 0 14 2 14 10 1 7 -12 9 -10 7 7 0 12 -5 19
-9 17 -4 -3 -8 7 -8 21 0 15 4 24 10 20 5 -3 7 0 5 7 -7 18 45 48 82 48 16 0
39 -7 52 -16 18 -13 28 -14 47 -5 28 12 31 26 8 35 -8 3 -12 10 -9 16 3 6 -1
7 -9 4 -9 -3 -16 -2 -16 3 0 5 -6 10 -12 11 -7 0 -26 2 -43 5 -16 2 -44 1 -62
-3z"/>
<path d="M6477 3582 c-3 -17 1 -26 17 -32 11 -4 25 -5 29 -3 5 3 7 -47 5 -110
-3 -109 -2 -116 17 -121 31 -9 35 -7 35 10 0 9 5 12 13 8 8 -5 8 -2 -2 9 -7 9
-9 17 -4 17 5 0 6 26 3 60 -3 33 -3 60 0 60 3 0 4 16 2 35 -4 34 -3 35 29 36
19 0 28 3 21 6 -9 4 -10 8 -2 18 17 21 -6 29 -86 29 -68 1 -73 0 -77 -22z"/>
<path d="M5935 3530 c-3 -5 -1 -10 4 -10 6 0 11 5 11 10 0 6 -2 10 -4 10 -3 0
-8 -4 -11 -10z"/>
<path d="M2840 3486 c0 -2 7 -7 16 -10 8 -3 12 -2 9 4 -6 10 -25 14 -25 6z"/>
<path d="M2717 3420 c7 -8 20 -15 29 -16 9 -1 13 1 9 4 -4 4 -10 7 -13 7 -4 0
-14 4 -22 9 -12 7 -13 6 -3 -4z"/>
<path d="M3526 3391 c-4 -5 -2 -12 3 -15 5 -4 12 -2 15 3 4 5 2 12 -3 15 -5 4
-12 2 -15 -3z"/>
<path d="M4777 3393 c-4 -3 -7 -11 -7 -17 0 -6 5 -5 12 2 6 6 9 14 7 17 -3 3
-9 2 -12 -2z"/>
<path d="M5210 3392 c0 -5 7 -9 15 -9 8 0 12 4 9 9 -3 4 -9 8 -15 8 -5 0 -9
-4 -9 -8z"/>
<path d="M4029 2973 c-13 -16 -12 -17 4 -4 9 7 17 15 17 17 0 8 -8 3 -21 -13z"/>
<path d="M3959 2963 c-13 -16 -12 -17 4 -4 16 13 21 21 13 21 -2 0 -10 -8 -17
-17z"/>
<path d="M3995 2961 c-3 -5 -2 -12 3 -15 5 -3 9 1 9 9 0 17 -3 19 -12 6z"/>
<path d="M3789 2933 c-13 -16 -12 -17 4 -4 9 7 17 15 17 17 0 8 -8 3 -21 -13z"/>
<path d="M3756 2923 c-6 -14 -5 -15 5 -6 7 7 10 15 7 18 -3 3 -9 -2 -12 -12z"/>
<path d="M3866 2928 c3 -5 10 -6 15 -3 13 9 11 12 -6 12 -8 0 -12 -4 -9 -9z"/>
<path d="M3489 2893 c-13 -16 -12 -17 4 -4 16 13 21 21 13 21 -2 0 -10 -8 -17
-17z"/>
<path d="M3525 2890 c-15 -17 -16 -23 -5 -33 10 -9 11 -9 5 1 -4 8 0 21 11 33
9 10 15 19 12 19 -3 0 -13 -9 -23 -20z"/>
<path d="M3399 2878 c-5 -18 -6 -38 -1 -34 7 8 12 36 6 36 -2 0 -4 -1 -5 -2z"/>
<path d="M3455 2861 c-3 -5 -2 -12 3 -15 5 -3 9 1 9 9 0 17 -3 19 -12 6z"/>
<path d="M3095 2850 c-3 -5 -1 -10 4 -10 6 0 11 5 11 10 0 6 -2 10 -4 10 -3 0
-8 -4 -11 -10z"/>
<path d="M3156 2843 c-6 -14 -5 -15 5 -6 7 7 10 15 7 18 -3 3 -9 -2 -12 -12z"/>
<path d="M3186 2852 c-2 -4 4 -8 14 -8 10 0 16 4 14 8 -3 4 -9 8 -14 8 -5 0
-11 -4 -14 -8z"/>
<path d="M3273 2843 c0 -7 5 -9 11 -5 6 3 17 7 24 8 27 4 22 12 -6 11 -16 -1
-29 -7 -29 -14z"/>
<path d="M3230 2846 c0 -2 8 -10 18 -17 15 -13 16 -12 3 4 -13 16 -21 21 -21
13z"/>
<path d="M2925 2829 c-5 -8 -5 -11 0 -7 4 4 14 0 22 -10 12 -16 14 -16 27 1
14 18 15 18 25 0 6 -10 11 -13 11 -7 0 6 -6 17 -14 23 -11 10 -17 8 -25 -6 -9
-17 -10 -17 -24 1 -11 16 -15 16 -22 5z"/>
<path d="M2875 2820 c6 -10 4 -12 -9 -7 -10 4 -15 3 -11 -3 8 -13 35 -13 35
-1 0 6 -5 13 -12 17 -7 5 -8 3 -3 -6z"/>
<path d="M3170 2815 c-7 -9 -8 -15 -2 -15 5 0 12 7 16 15 3 8 4 15 2 15 -2 0
-9 -7 -16 -15z"/>
<path d="M3210 2826 c0 -2 8 -10 18 -17 15 -13 16 -12 3 4 -13 16 -21 21 -21
13z"/>
<path d="M2782 2800 c-7 -12 -8 -20 -2 -20 5 0 10 5 10 11 0 5 4 7 10 4 6 -3
7 1 4 9 -8 20 -7 20 -22 -4z"/>
<path d="M2822 2800 c7 -11 16 -20 20 -20 15 0 8 15 -12 28 -19 12 -20 11 -8
-8z"/>
<path d="M3115 2810 c-3 -5 -1 -10 4 -10 6 0 11 5 11 10 0 6 -2 10 -4 10 -3 0
-8 -4 -11 -10z"/>
<path d="M2735 2802 c-3 -3 0 -11 6 -19 8 -9 8 -13 1 -13 -6 0 -16 8 -21 18
-6 9 -11 11 -11 5 0 -15 48 -48 57 -39 3 3 1 6 -4 6 -12 0 -12 18 -1 36 7 10
-17 16 -27 6z"/>
<path d="M2624 2788 c6 -21 -4 -23 -23 -5 -10 9 -12 9 -7 0 5 -9 -2 -11 -24
-8 -17 2 -28 0 -25 -6 4 -5 2 -9 -4 -9 -5 0 -11 3 -14 8 -2 4 -2 1 -1 -5 5
-18 -12 -16 -32 5 -17 16 -18 16 -11 0 7 -21 -3 -24 -21 -6 -9 9 -12 9 -12 0
0 -7 5 -12 11 -12 5 0 7 -5 3 -11 -4 -8 -13 -4 -26 12 -15 20 -17 21 -11 4 6
-18 5 -18 -10 -7 -20 17 -38 7 -31 -16 4 -11 -2 -8 -16 8 -12 14 -19 20 -16
13 4 -8 -9 -11 -43 -9 -27 1 -47 -2 -45 -6 2 -3 0 -9 -6 -13 -5 -3 -10 -2 -10
4 0 7 -28 8 -37 1 -8 -7 -30 -5 -41 3 -7 6 -15 7 -19 3 -3 -3 -1 -6 6 -6 7 0
10 -4 7 -8 -3 -5 -19 -7 -35 -6 -17 1 -29 -2 -26 -6 3 -5 14 -7 25 -5 13 3 17
-1 13 -11 -4 -10 0 -12 11 -8 9 3 14 9 11 13 -5 9 41 8 50 -1 3 -3 7 -15 10
-26 4 -21 -20 -50 -32 -38 -3 3 -1 6 6 6 7 0 9 5 6 10 -4 6 -15 1 -26 -12 -12
-13 -17 -17 -13 -9 4 9 3 12 -4 7 -6 -3 -14 0 -19 8 -6 11 -13 12 -23 6 -13
-8 -13 -10 2 -10 9 0 20 -5 23 -11 11 -16 -28 -6 -42 11 -6 8 -9 19 -6 25 3 5
0 4 -7 -2 -11 -10 -11 -16 3 -31 21 -23 22 -36 1 -28 -8 3 -12 2 -9 -4 3 -5
-3 -7 -15 -5 -11 2 -22 0 -25 -5 -3 -5 -12 -7 -20 -3 -11 4 -13 1 -9 -11 3 -9
11 -13 18 -9 13 9 28 12 75 16 23 2 37 10 42 23 7 18 8 18 9 -1 1 -19 2 -18
10 3 5 12 12 22 14 22 3 0 3 -7 0 -15 -4 -8 -1 -15 6 -15 6 0 8 5 5 10 -7 11
30 8 41 -3 4 -3 16 0 26 8 11 7 26 11 33 9 7 -3 16 0 20 6 6 9 10 9 16 -1 6
-10 9 -10 9 -2 0 7 7 10 15 7 18 -7 20 17 4 33 -9 9 -7 12 9 10 17 -1 21 -6
17 -24 -3 -19 -1 -21 13 -15 9 5 24 8 32 7 8 0 29 4 45 11 17 6 38 10 48 9 15
-3 16 -1 6 11 -11 14 1 20 15 7 9 -10 37 -13 31 -3 -2 4 4 15 15 25 22 20 25
14 9 -18 -10 -21 -10 -21 6 -2 8 11 13 26 10 33 -4 10 0 12 11 8 8 -3 18 -6
20 -6 2 0 4 -5 4 -11 0 -5 -4 -8 -9 -5 -5 3 -11 0 -14 -7 -3 -7 3 -13 13 -13
10 0 18 3 18 6 -2 18 4 21 20 9 15 -13 16 -12 4 3 -8 10 -22 20 -33 23 -11 4
-17 10 -14 14 5 9 -38 6 -53 -3 -5 -3 -15 1 -22 9 -9 11 -8 14 7 14 51 1 89 7
102 15 10 6 21 0 40 -20 40 -45 58 -57 66 -44 4 6 3 9 -2 8 -13 -5 -83 64 -77
74 4 6 -2 5 -13 -1 -14 -7 -24 -7 -33 2 -12 10 -12 9 -1 -5 8 -11 9 -18 3 -18
-6 0 -16 8 -22 18 -11 16 -11 16 -6 0z m-209 -48 c4 -6 10 -8 15 -5 5 3 12 1
15 -5 5 -8 11 -7 21 1 21 17 81 20 95 3 8 -10 16 -11 30 -3 26 13 24 9 -10
-24 -21 -19 -32 -24 -37 -16 -5 8 -3 9 7 4 8 -5 11 -4 6 0 -4 5 -16 9 -26 10
-14 1 -18 -4 -15 -18 2 -11 1 -17 -3 -14 -3 4 -21 0 -40 -8 -18 -8 -31 -10
-28 -5 3 6 1 10 -4 10 -6 0 -11 -4 -11 -8 0 -4 -9 -8 -21 -9 -17 -2 -18 1 -9
12 7 8 16 12 21 9 5 -3 6 2 3 10 -4 9 1 18 10 22 9 3 13 11 10 16 -4 6 -10 5
-14 -3 -11 -16 -43 -21 -37 -6 3 7 11 11 18 9 8 -1 5 4 -5 13 -11 8 -15 15 -9
15 7 0 15 -5 18 -10z m-85 -10 c5 8 10 10 10 4 0 -7 8 -11 18 -10 9 0 16 -5
15 -11 -3 -12 9 -17 30 -14 4 0 7 -3 7 -8 0 -6 -9 -9 -20 -8 -11 1 -20 5 -20
10 0 5 -7 4 -15 -3 -11 -9 -13 -16 -5 -24 16 -16 12 -25 -10 -21 -11 2 -22 0
-25 -6 -4 -5 -20 -7 -36 -4 -18 3 -28 2 -25 -4 4 -5 2 -12 -3 -15 -5 -4 -12
-2 -16 4 -4 6 -12 7 -18 3 -7 -3 -4 2 5 13 24 28 24 28 6 56 -19 29 -14 42 13
28 12 -7 20 -6 24 1 4 6 13 8 21 5 8 -3 14 0 14 7 0 8 4 7 10 -3 9 -13 11 -13
20 0z m-196 -119 c3 -5 -1 -11 -9 -14 -9 -4 -12 -1 -8 9 6 16 10 17 17 5z"/>
<path d="M2482 2731 c-7 -4 -15 -20 -16 -35 -2 -18 0 -23 8 -17 6 5 15 10 20
10 11 1 18 51 8 51 -4 0 -13 -4 -20 -9z m14 -20 c0 -11 -5 -17 -13 -14 -10 4
-11 9 -2 19 15 18 15 18 15 -5z"/>
<path d="M2525 2730 c-3 -5 -1 -10 4 -10 6 0 11 5 11 10 0 6 -2 10 -4 10 -3 0
-8 -4 -11 -10z"/>
<path d="M2430 2690 c0 -5 5 -10 10 -10 6 0 10 5 10 10 0 6 -4 10 -10 10 -5 0
-10 -4 -10 -10z"/>
<path d="M2230 2708 c16 -14 20 -45 7 -65 -4 -6 -2 -15 4 -19 7 -4 9 -3 6 3
-4 6 0 16 8 23 12 10 15 10 15 -1 1 -8 7 -3 16 11 14 23 14 23 9 3 -6 -23 8
-32 20 -13 4 6 11 8 16 5 5 -3 6 1 3 9 -3 8 3 23 13 33 19 19 19 19 -28 19
-26 -1 -51 -4 -55 -8 -3 -4 -16 -3 -28 3 -18 9 -19 8 -6 -3z m94 -30 c-8 -16
-17 -28 -20 -28 -3 0 -2 5 1 10 9 15 -4 30 -20 24 -8 -4 -13 -9 -10 -13 2 -4
-2 -8 -9 -8 -8 0 -13 5 -12 11 4 25 17 33 50 32 34 -1 34 -1 20 -28z"/>
<path d="M2897 2793 c-3 -5 0 -17 4 -28 8 -18 9 -18 5 3 -3 17 -1 22 10 18 8
-3 14 -1 14 4 0 12 -27 13 -33 3z"/>
<path d="M2975 2789 c-4 -6 -4 -13 -1 -16 3 -4 6 -1 6 6 0 7 5 9 12 5 7 -4 8
-3 4 4 -9 15 -13 15 -21 1z"/>
<path d="M3014 2789 c-4 -7 -3 -9 4 -5 5 3 13 0 15 -6 4 -9 6 -10 6 -1 1 17
-16 25 -25 12z"/>
<path d="M2931 2763 c-10 -24 -9 -26 2 -11 8 10 17 15 21 11 4 -4 4 0 0 10 -8
22 -9 22 -23 -10z"/>
<path d="M2800 2769 c0 -5 5 -7 10 -4 6 3 10 8 10 11 0 2 -4 4 -10 4 -5 0 -10
-5 -10 -11z"/>
<path d="M2860 2769 c0 -5 -6 -7 -12 -4 -7 4 -2 -3 11 -14 13 -12 28 -21 35
-20 7 0 6 2 -2 6 -6 2 -10 9 -7 14 4 5 -2 6 -12 2 -16 -6 -16 -5 -4 10 9 11
10 17 2 17 -6 0 -11 -5 -11 -11z"/>
<path d="M2661 2751 c-9 -6 -10 -11 -2 -15 6 -4 11 -2 11 4 0 6 5 8 10 5 6 -4
8 -10 5 -15 -6 -9 12 -23 32 -26 6 -1 9 5 6 13 -5 12 -7 12 -14 1 -5 -7 -9
-10 -10 -5 -1 4 -3 12 -4 17 -1 6 -3 15 -4 20 -1 12 -11 13 -30 1z"/>
<path d="M2814 2746 c-3 -9 -10 -13 -15 -10 -5 3 -9 0 -9 -5 0 -16 20 -13 26
4 4 8 10 12 15 9 5 -3 7 -10 4 -15 -4 -5 -1 -9 4 -9 16 0 13 16 -4 30 -12 10
-16 9 -21 -4z"/>
<path d="M2074 2723 c4 -8 1 -13 -8 -13 -8 0 -20 -9 -26 -20 -9 -16 -8 -22 5
-26 9 -4 13 -13 11 -23 -3 -9 -1 -23 4 -31 7 -12 10 -12 10 -1 0 8 6 11 17 7
14 -6 14 -4 -2 15 -20 21 -20 21 3 40 l23 18 -22 23 c-12 13 -19 17 -15 11z
m16 -32 c0 -9 -29 -37 -31 -30 0 2 -2 11 -4 19 -1 10 5 16 16 17 11 1 19 -2
19 -6z"/>
<path d="M1997 2704 c-2 -2 -23 -5 -48 -7 -42 -3 -50 -10 -33 -25 4 -4 4 -1
-1 7 -6 10 -4 12 4 7 9 -6 9 -11 -1 -24 -11 -13 -11 -14 2 -10 8 3 15 12 14
20 -1 10 11 14 47 12 32 -1 49 3 49 11 0 10 -25 17 -33 9z"/>
<path d="M1865 2691 c-8 -14 3 -33 15 -26 4 3 7 -6 6 -20 -2 -14 2 -29 9 -35
10 -8 12 -3 12 23 -1 35 -30 76 -42 58z"/>
<path d="M2112 2675 c-11 -24 -10 -25 8 -15 16 8 22 8 26 -3 2 -7 12 -14 21
-14 14 0 14 2 -1 12 -15 11 -15 13 -1 19 11 4 14 2 9 -6 -5 -7 -2 -9 8 -5 9 3
21 0 27 -6 8 -8 9 -4 6 13 -2 12 -7 25 -11 29 -4 3 -4 -3 -1 -14 6 -18 6 -18
-6 -4 -11 15 -15 15 -32 3 -17 -13 -21 -13 -31 0 -9 13 -13 12 -22 -9z"/>
<path d="M1720 2659 c-13 -23 4 -54 22 -42 6 3 20 6 32 7 14 1 21 8 20 22 0
13 7 21 20 22 12 0 16 -2 10 -6 -17 -11 -23 -39 -11 -51 17 -17 31 -13 17 4
-10 13 -10 19 4 33 24 28 20 33 -24 30 -22 -1 -40 -5 -40 -8 0 -3 -9 -6 -20
-7 -11 -1 -18 2 -15 8 4 5 4 9 1 9 -3 0 -10 -9 -16 -21z m65 -9 c3 -5 1 -10
-4 -10 -6 0 -11 5 -11 10 0 6 2 10 4 10 3 0 8 -4 11 -10z m-40 -10 c3 -5 1
-10 -4 -10 -6 0 -11 5 -11 10 0 6 2 10 4 10 3 0 8 -4 11 -10z"/>
<path d="M1940 2653 c-17 -13 -27 -29 -24 -34 3 -5 9 -7 14 -4 5 3 11 1 15 -5
9 -15 25 -12 25 5 0 8 -3 14 -7 14 -26 -4 -34 1 -21 15 8 8 15 10 19 4 3 -5
10 -10 15 -9 5 0 8 -10 6 -22 -1 -16 0 -18 7 -8 6 9 11 10 15 2 7 -10 -6 -16
-28 -12 -5 1 -6 -5 -2 -14 4 -11 2 -14 -6 -9 -7 5 -8 3 -3 -6 6 -9 4 -11 -5
-5 -9 6 -11 4 -5 -4 5 -9 -1 -8 -21 2 -26 13 -30 13 -41 -2 -12 -15 -13 -15
-7 2 3 9 1 17 -5 17 -14 0 -14 -20 -1 -40 7 -12 10 -12 10 -1 0 8 6 11 16 7 8
-3 12 -2 9 4 -3 6 -1 10 4 10 6 0 11 -4 11 -9 0 -12 27 -8 42 7 8 8 15 8 23 2
9 -8 12 -4 11 12 -1 17 5 23 19 23 15 0 20 7 20 25 0 35 -13 52 -34 40 -11 -5
-23 -5 -32 2 -11 8 -11 9 3 4 10 -3 19 -2 22 2 12 19 -37 8 -64 -15z m96 -27
c2 -23 1 -24 -16 -8 -15 12 -17 19 -8 29 13 17 21 10 24 -21z"/>
<path d="M1620 2644 c0 -8 5 -12 10 -9 6 4 8 11 5 16 -9 14 -15 11 -15 -7z"/>
<path d="M1840 2645 c-11 -13 -10 -19 5 -35 17 -19 17 -21 0 -40 -10 -12 -25
-18 -32 -16 -8 3 -16 -1 -20 -9 -3 -11 -9 -12 -17 -6 -17 14 -37 -1 -26 -19 7
-11 10 -11 10 -2 0 10 5 10 21 1 13 -7 19 -7 15 -1 -3 6 -2 13 4 17 5 3 10 0
10 -7 0 -10 2 -10 8 -1 4 7 18 11 30 8 12 -2 22 1 22 7 0 5 -7 8 -15 4 -13 -4
-12 -1 1 20 10 14 23 23 30 20 17 -7 18 6 2 22 -7 7 -13 20 -13 29 0 22 -19
27 -35 8z m25 -5 c-4 -6 -1 -18 7 -27 12 -15 11 -15 -9 -3 -16 11 -19 17 -11
27 13 16 22 17 13 3z"/>
<path d="M1790 2617 c0 -6 8 -22 27 -56 4 -7 33 21 33 32 0 8 -4 7 -11 0 -9
-9 -16 -6 -30 10 -10 12 -18 19 -19 14z"/>
<path d="M1933 2596 c6 -16 5 -17 -8 -6 -8 7 -15 8 -15 2 0 -14 31 -25 42 -14
5 5 1 15 -8 23 -16 12 -17 12 -11 -5z"/>
</g>
</svg>
